<svg width="12" height="12" viewBox="0 0 12 12" fill="none" xmlns="http://www.w3.org/2000/svg">
<g clip-path="url(#clip0_2054_19763)">
<path d="M9.29302 6.293L7.00002 8.586L7.00002 1C7.00002 0.734783 6.89466 0.480429 6.70713 0.292893C6.51959 0.105357 6.26524 -4.12854e-07 6.00002 -4.3604e-07C5.7348 -4.59226e-07 5.48045 0.105357 5.29291 0.292893C5.10538 0.480429 5.00002 0.734783 5.00002 0.999999L5.00002 8.586L2.70702 6.293C2.51842 6.11084 2.26582 6.01005 2.00362 6.01232C1.74142 6.0146 1.49061 6.11977 1.3052 6.30518C1.11979 6.49059 1.01463 6.7414 1.01235 7.0036C1.01007 7.26579 1.11086 7.5184 1.29302 7.707L5.29302 11.707C5.48055 11.8945 5.73486 11.9998 6.00002 11.9998C6.26518 11.9998 6.51949 11.8945 6.70702 11.707L10.707 7.707C10.8892 7.5184 10.99 7.2658 10.9877 7.0036C10.9854 6.7414 10.8802 6.49059 10.6948 6.30518C10.5094 6.11977 10.2586 6.0146 9.99642 6.01233C9.73423 6.01005 9.48162 6.11084 9.29302 6.293Z" fill="#C20517"/>
</g>
<defs>
<clipPath id="clip0_2054_19763">
<rect width="12" height="12" fill="white" transform="translate(12 12) rotate(-180)"/>
</clipPath>
</defs>
</svg>
