<svg width="24" height="24" viewBox="0 0 24 24" fill="none" xmlns="http://www.w3.org/2000/svg">
<path d="M11.6464 10.9536L12 11.3071L12.3536 10.9536L18.6536 4.65355C18.8583 4.44882 19.1417 4.44882 19.3464 4.65355C19.5512 4.85829 19.5512 5.14171 19.3464 5.34645L13.0464 11.6464L12.6929 12L13.0464 12.3536L19.3464 18.6536C19.5512 18.8583 19.5512 19.1417 19.3464 19.3464C19.3033 19.3896 19.2394 19.4307 19.1643 19.4608C19.087 19.4917 19.0252 19.5 19 19.5C18.9748 19.5 18.913 19.4917 18.8357 19.4608C18.7606 19.4307 18.6967 19.3896 18.6536 19.3464L12.3536 13.0464L12 12.6929L11.6464 13.0464L5.34645 19.3464C5.27596 19.4169 5.22535 19.4499 5.18443 19.4681C5.14569 19.4853 5.09166 19.5 5 19.5C4.90834 19.5 4.85431 19.4853 4.81557 19.4681C4.77465 19.4499 4.72404 19.4169 4.65355 19.3464C4.44882 19.1417 4.44882 18.8583 4.65355 18.6536L10.9536 12.3536L11.3071 12L10.9536 11.6464L4.65355 5.34645C4.44882 5.14171 4.44882 4.85829 4.65355 4.65355C4.85829 4.44882 5.14171 4.44882 5.34645 4.65355L11.6464 10.9536Z" fill="white" stroke="white"/>
</svg>
