<svg width="325" height="64" viewBox="0 0 325 64" fill="none" xmlns="http://www.w3.org/2000/svg">
<path d="M83.7734 2V39H92.9782V25.8008H106.816V17.9173H92.9782V10.0239H107.997V2H83.7734Z" fill="#57B89C"/>
<path d="M37.3447 2V39H58.5404V31.2332H46.6564V2H37.3447Z" fill="white"/>
<path d="M60.5586 2V39H81.7543V31.2332H69.86V2H60.5586Z" fill="white"/>
<path d="M129.354 1C117.798 1 109.713 9.49 109.713 20.28C109.713 31.07 117.798 39.56 129.354 39.56C140.911 39.56 148.995 31.07 148.995 20.28C148.995 9.49 140.84 1 129.354 1ZM129.354 31.18C122.844 31.18 118.777 26.36 118.777 20.28C118.777 14.2 122.854 9.38 129.354 9.38C135.854 9.38 139.932 14.2 139.932 20.28C139.932 26.36 135.794 31.18 129.354 31.18Z" fill="#57B89C"/>
<path d="M304.605 2H291.693V39H304.605C316.463 39 323.992 30.3006 323.992 20.4399C323.992 10.0187 315.531 2 304.605 2V2ZM304.424 30.7411H300.785V10.2089H304.424C310.79 10.2089 314.679 14.7137 314.679 20.4499C314.679 26.6767 310.238 30.7511 304.424 30.7511V30.7411Z" fill="#57B89C"/>
<path d="M180.668 2H190.795L194.84 22.7148H195.274L199.228 2H210.555L214.509 22.7148H214.943L218.988 2H229.115L220.289 39H209.587L205.098 16.6918H204.665L200.176 39H189.474L180.668 2Z" fill="#57B89C"/>
<path d="M35.3261 38.99L22.8259 2H12.49L0 38.99H1.87098C1.87098 38.99 1.87098 38.99 1.87098 39H9.99203C9.99203 34.8002 13.4104 31.3785 17.6175 31.3785C21.8247 31.3785 25.243 34.8002 25.243 39H33.3742C33.3742 39 33.3742 39 33.3742 38.99H35.316H35.3261ZM14.0576 23.6573L17.0208 13.3624L20.4493 23.5077C19.529 23.3381 18.5884 23.2583 17.6276 23.2583C16.414 23.2583 15.2207 23.398 14.0576 23.6573V23.6573Z" fill="white"/>
<path d="M290.684 38.99L280.547 25.2391C286.114 23.8851 289.432 20.2442 289.432 13.775C289.432 6.80428 284.18 2 276.109 2H260.404V14.2464V20.5752V39H269.595V25.1889L279.162 39H290.674L290.684 38.99ZM276.984 18.0276H269.605V9.71293H276.74C278.806 9.71293 280.435 11.6286 280.435 13.785C280.435 15.9414 279.061 18.0377 276.994 18.0377L276.984 18.0276Z" fill="#57B89C"/>
<path d="M181.677 38.99L171.54 25.2391C177.107 23.8851 180.425 20.2442 180.425 13.775C180.425 6.80428 175.173 2 167.102 2H151.397V14.2464V20.5752V39H160.588V25.1889L170.155 39H181.667L181.677 38.99ZM167.977 18.0276H160.598V9.71293H167.733C169.799 9.71293 171.428 11.6286 171.428 13.785C171.428 15.9414 170.054 18.0377 167.988 18.0377L167.977 18.0276Z" fill="#57B89C"/>
<path d="M229.619 12.29L243.628 17.88L226.561 25.08L229.619 12.29Z" fill="white"/>
<path d="M192.739 57.46C192.901 57.39 192.911 57.22 192.961 57.09C193.96 54.72 194.96 52.34 195.939 49.96C196.08 49.62 196.262 49.47 196.645 49.49C197.261 49.52 197.866 49.51 198.482 49.49C198.775 49.49 198.876 49.6 198.886 49.89C198.987 52.33 199.108 54.78 199.229 57.22C199.229 57.29 199.209 57.37 199.279 57.44C199.421 57.4 199.421 57.26 199.461 57.17C200.47 54.78 201.47 52.38 202.479 49.99C202.681 49.51 202.691 49.5 203.226 49.5C203.761 49.5 204.296 49.5 204.831 49.5C205.295 49.5 205.356 49.59 205.174 50.02C204.427 51.74 203.68 53.45 202.933 55.17C201.873 57.61 200.804 60.05 199.744 62.49C199.613 62.8 199.431 62.94 199.078 62.93C198.472 62.9 197.877 62.91 197.271 62.93C196.958 62.93 196.847 62.83 196.837 62.52C196.786 60.88 196.726 59.23 196.675 57.59C196.645 56.62 196.605 55.64 196.564 54.67C196.564 54.61 196.585 54.54 196.504 54.48C196.363 54.5 196.363 54.65 196.322 54.74C195.262 57.3 194.203 59.86 193.153 62.42C192.941 62.92 192.931 62.93 192.386 62.93C191.851 62.93 191.316 62.93 190.781 62.93C190.519 62.93 190.418 62.83 190.397 62.57C190.175 59.1 189.953 55.64 189.731 52.17C189.691 51.47 189.63 50.77 189.59 50.07C189.56 49.59 189.63 49.51 190.105 49.51C190.72 49.51 191.326 49.52 191.942 49.51C192.265 49.51 192.386 49.61 192.396 49.93C192.446 51.61 192.517 53.28 192.578 54.96C192.608 55.74 192.628 56.52 192.658 57.3C192.658 57.36 192.658 57.43 192.729 57.48L192.739 57.46Z" fill="white"/>
<path d="M272.203 54.25C271.981 54.42 271.84 54.66 271.668 54.87C271.022 55.66 270.386 56.46 269.75 57.26C269.549 57.52 269.316 57.65 268.973 57.64C267.792 57.61 268.035 57.79 267.601 56.72C267.298 55.99 267.005 55.26 266.702 54.52C266.662 54.42 266.652 54.31 266.521 54.21C266.359 54.6 266.329 55 266.248 55.39C265.774 57.76 265.32 60.12 264.855 62.49C264.795 62.79 264.653 62.91 264.34 62.9C263.735 62.88 263.139 62.9 262.534 62.9C262.15 62.9 262.09 62.84 262.16 62.46C262.382 61.3 262.615 60.15 262.847 58.99C263.432 56.02 264.007 53.05 264.593 50.08C264.704 49.53 264.734 49.49 265.32 49.49C265.854 49.49 266.389 49.5 266.924 49.49C267.217 49.49 267.379 49.59 267.49 49.86C268.045 51.23 268.62 52.6 269.195 53.97C269.327 54.28 269.347 54.28 269.559 54.02C270.669 52.67 271.779 51.32 272.869 49.95C273.132 49.62 273.404 49.45 273.838 49.48C274.373 49.51 274.908 49.48 275.443 49.48C275.796 49.48 275.867 49.56 275.796 49.88C275.221 52.81 274.646 55.74 274.07 58.67C273.818 59.94 273.566 61.22 273.323 62.49C273.263 62.79 273.122 62.91 272.809 62.9C272.203 62.88 271.608 62.9 271.002 62.9C270.618 62.9 270.558 62.83 270.629 62.46C270.931 60.89 271.244 59.32 271.557 57.75C271.779 56.64 271.991 55.52 272.213 54.41C272.213 54.36 272.254 54.31 272.173 54.24L272.203 54.25Z" fill="white"/>
<path d="M298.333 57.7399C298.474 57.0099 298.616 56.3199 298.747 55.6399C299.12 53.7199 299.504 51.7999 299.877 49.8799C299.928 49.6299 300.059 49.4999 300.332 49.5099C300.957 49.5099 301.583 49.5099 302.199 49.5099C302.522 49.5099 302.592 49.5999 302.532 49.8999C301.704 54.0999 300.877 58.3099 300.059 62.5099C299.999 62.7899 299.877 62.9399 299.554 62.9299C298.989 62.9099 298.414 62.9099 297.849 62.9299C297.556 62.9399 297.415 62.8299 297.314 62.5699C296.335 60.0599 295.346 57.5599 294.346 55.0499C294.286 54.8999 294.266 54.7299 294.084 54.5899C293.993 55.0299 293.912 55.4399 293.832 55.8399C293.408 58.0299 292.984 60.2199 292.57 62.3999C292.479 62.8699 292.419 62.9099 291.944 62.9099C291.379 62.9099 290.804 62.9099 290.238 62.9099C289.865 62.9099 289.815 62.8499 289.875 62.4899C290.299 60.2899 290.733 58.0999 291.167 55.8999C291.551 53.9499 291.934 51.9999 292.318 50.0399C292.419 49.5199 292.449 49.4899 292.974 49.4899C293.488 49.4899 294.003 49.5099 294.518 49.4899C294.851 49.4799 295.023 49.5899 295.154 49.9099C296.143 52.4199 297.142 54.9199 298.141 57.4199C298.182 57.5199 298.192 57.6299 298.353 57.7399H298.333Z" fill="white"/>
<path d="M222.614 49.4802C223.432 49.5102 224.441 49.4302 225.44 49.5102C227.449 49.6802 228.549 51.1102 228.276 53.1702C228.024 55.0502 227.025 56.3902 225.198 57.0602C224.966 57.1502 225.016 57.2702 225.057 57.4402C225.511 59.0902 225.965 60.7302 226.419 62.3802C226.54 62.8302 226.48 62.9202 225.995 62.9202C225.379 62.9202 224.774 62.9102 224.158 62.9202C223.855 62.9202 223.704 62.8202 223.633 62.5202C223.25 60.9302 222.836 59.3502 222.452 57.7702C222.372 57.4402 222.23 57.3202 221.897 57.3502C221.504 57.3802 221.11 57.3702 220.716 57.3502C220.504 57.3502 220.404 57.4302 220.363 57.6302C220.06 59.2302 219.748 60.8402 219.435 62.4402C219.354 62.8402 219.283 62.9102 218.879 62.9102C218.264 62.9102 217.658 62.9102 217.043 62.9102C216.77 62.9102 216.669 62.8102 216.72 62.5302C217.265 59.7702 217.8 57.0102 218.345 54.2502C218.627 52.8302 218.9 51.4102 219.182 49.9802C219.273 49.5102 219.344 49.4502 219.838 49.4502C220.706 49.4502 221.564 49.4502 222.624 49.4502L222.614 49.4802ZM222.341 55.2702C222.755 55.2702 223.169 55.2802 223.583 55.2702C224.522 55.2302 225.309 54.5602 225.521 53.6502C225.743 52.6602 225.228 51.9002 224.239 51.8502C223.401 51.8102 222.553 51.8502 221.716 51.8402C221.574 51.8402 221.504 51.8902 221.473 52.0402C221.282 53.0402 221.09 54.0302 220.888 55.0302C220.848 55.2202 220.908 55.2802 221.1 55.2702C221.514 55.2602 221.928 55.2702 222.341 55.2702V55.2702Z" fill="white"/>
<path d="M140.608 57.32C139.982 57.32 139.357 57.33 138.741 57.32C138.509 57.32 138.408 57.38 138.368 57.61C138.065 59.21 137.742 60.82 137.439 62.42C137.348 62.88 137.298 62.93 136.813 62.93C136.238 62.93 135.652 62.93 135.077 62.93C134.724 62.93 134.663 62.86 134.734 62.53C135.208 60.11 135.683 57.69 136.157 55.27C136.5 53.53 136.843 51.79 137.177 50.05C137.277 49.55 137.308 49.52 137.812 49.52C138.408 49.52 138.993 49.52 139.589 49.52C139.871 49.52 139.952 49.63 139.902 49.9C139.589 51.46 139.286 53.02 138.983 54.58C138.902 55 138.892 54.99 139.316 54.99C140.507 54.99 141.698 54.98 142.889 54.99C143.202 54.99 143.293 54.88 143.354 54.6C143.646 53.04 143.969 51.48 144.262 49.92C144.322 49.62 144.464 49.49 144.767 49.5C145.372 49.51 145.968 49.5 146.573 49.5C146.967 49.5 147.027 49.58 146.947 49.97C146.664 51.38 146.392 52.79 146.109 54.2C145.564 56.96 145.019 59.72 144.484 62.48C144.423 62.79 144.282 62.93 143.959 62.92C143.374 62.9 142.778 62.92 142.183 62.92C141.779 62.92 141.718 62.85 141.789 62.47C142.062 61.11 142.324 59.75 142.597 58.4C142.647 58.15 142.687 57.89 142.748 57.64C142.809 57.41 142.758 57.31 142.486 57.32C141.86 57.34 141.234 57.32 140.618 57.32H140.608Z" fill="white"/>
<path d="M180.424 63.1301C179.809 63.1601 179.133 63.0501 178.497 62.7801C177.104 62.2001 176.317 60.9001 176.357 59.3001C176.387 58.2601 176.68 57.2701 176.862 56.2601C177.003 55.4401 177.164 54.6201 177.356 53.8101C178.063 50.9301 180.788 49.0601 183.765 49.3601C184.775 49.4601 185.703 49.7401 186.42 50.4801C187.247 51.3301 187.52 52.4001 187.369 53.5401C187.136 55.2401 186.773 56.9301 186.4 58.6001C186.077 60.0601 185.259 61.2301 184.018 62.0901C182.968 62.8101 181.797 63.1401 180.445 63.1201L180.424 63.1301ZM184.654 53.6801C184.664 52.4301 183.987 51.7301 182.867 51.6801C181.504 51.6201 180.313 52.5401 180.001 53.9601C179.657 55.5101 179.355 57.0801 179.082 58.6401C178.85 59.9801 179.799 60.9401 181.151 60.7901C182.463 60.6501 183.422 59.8201 183.715 58.5101C183.937 57.5201 184.119 56.5201 184.31 55.5201C184.431 54.8601 184.613 54.2101 184.643 53.6801H184.654Z" fill="white"/>
<path d="M238.229 63.1299C237.593 63.1599 236.907 63.0499 236.251 62.7699C234.868 62.1899 234.081 60.8999 234.131 59.3099C234.161 58.1399 234.515 57.0299 234.706 55.8899C234.818 55.2099 234.949 54.5299 235.12 53.8599C235.837 50.9299 238.532 49.0599 241.56 49.3699C242.559 49.4699 243.467 49.7599 244.184 50.4799C244.991 51.2899 245.294 52.3199 245.153 53.4099C244.911 55.2999 244.578 57.1799 244.053 59.0099C243.316 61.5699 241.045 63.1399 238.239 63.1399L238.229 63.1299ZM242.428 53.6799C242.428 52.4299 241.762 51.7299 240.641 51.6799C239.279 51.6299 238.088 52.5499 237.785 53.9699C237.452 55.5199 237.139 57.0899 236.877 58.6499C236.644 59.9899 237.593 60.9399 238.956 60.7999C240.258 60.6599 241.217 59.8299 241.509 58.5399C241.731 57.5399 241.913 56.5299 242.115 55.5199C242.236 54.8599 242.418 54.2099 242.448 53.6799H242.428Z" fill="white"/>
<path d="M285.939 62.92C285.595 62.92 285.262 62.92 284.919 62.92C284.667 62.92 284.566 62.82 284.546 62.58C284.495 62.07 284.425 61.57 284.384 61.06C284.364 60.82 284.253 60.76 284.031 60.76C282.638 60.76 281.255 60.76 279.863 60.76C279.63 60.76 279.509 60.85 279.408 61.05C279.176 61.55 278.914 62.04 278.682 62.54C278.561 62.8 278.379 62.93 278.066 62.92C277.43 62.9 276.794 62.92 276.158 62.92C275.704 62.92 275.644 62.83 275.856 62.43C276.915 60.36 277.975 58.29 279.035 56.22C280.115 54.11 281.205 52 282.275 49.89C282.416 49.61 282.598 49.5 282.911 49.5C283.728 49.51 284.556 49.52 285.373 49.5C285.696 49.5 285.838 49.59 285.878 49.93C286.141 52.26 286.433 54.59 286.716 56.92C286.928 58.66 287.14 60.4 287.342 62.14C287.342 62.16 287.342 62.18 287.352 62.2C287.443 62.87 287.392 62.92 286.706 62.92C286.443 62.92 286.181 62.92 285.918 62.92H285.939ZM283.577 52.67C283.456 52.68 283.446 52.77 283.405 52.83C282.497 54.7 281.589 56.57 280.68 58.43C280.569 58.66 280.68 58.68 280.862 58.68C281.871 58.68 282.87 58.68 283.88 58.68C284.132 58.68 284.162 58.57 284.142 58.36C283.991 56.78 283.849 55.19 283.678 53.61C283.648 53.29 283.668 52.97 283.567 52.66L283.577 52.67Z" fill="white"/>
<path d="M209.433 62.9202C208.041 62.9202 206.658 62.9202 205.265 62.9202C204.902 62.9202 204.851 62.8502 204.922 62.4902C205.659 58.7202 206.395 54.9502 207.142 51.1902C207.223 50.7602 207.314 50.3202 207.395 49.8802C207.445 49.6102 207.586 49.4902 207.859 49.4902C210.675 49.4902 213.481 49.4902 216.297 49.4902C216.6 49.4902 216.68 49.6102 216.63 49.8902C216.529 50.3902 216.428 50.8902 216.337 51.3902C216.287 51.7202 216.105 51.8302 215.772 51.8302C213.895 51.8302 212.007 51.8302 210.13 51.8202C209.817 51.8202 209.666 51.8902 209.615 52.2202C209.484 53.0302 209.312 53.8402 209.141 54.6402C209.08 54.9202 209.171 54.9802 209.444 54.9802C210.624 54.9702 211.805 54.9802 212.986 54.9802C213.41 54.9802 213.471 55.0402 213.39 55.4602C213.299 55.9402 213.188 56.4102 213.107 56.8902C213.057 57.2102 212.885 57.3202 212.562 57.3202C211.361 57.3202 210.16 57.3202 208.949 57.3102C208.687 57.3102 208.586 57.3902 208.545 57.6402C208.384 58.5202 208.212 59.4002 208.031 60.2802C207.98 60.5202 208.031 60.6002 208.293 60.6002C210.201 60.5902 212.098 60.6002 214.006 60.6002C214.46 60.6002 214.52 60.6702 214.43 61.1202C214.329 61.5902 214.228 62.0502 214.147 62.5202C214.097 62.8202 213.945 62.9402 213.632 62.9302C212.229 62.9202 210.836 62.9302 209.433 62.9302V62.9202Z" fill="white"/>
<path d="M151.943 62.9203C150.55 62.9203 149.167 62.9203 147.774 62.9203C147.381 62.9203 147.33 62.8603 147.401 62.4903C148.208 58.3903 149.006 54.3003 149.813 50.2003C149.823 50.1303 149.833 50.0503 149.843 49.9803C149.924 49.5703 149.995 49.5103 150.409 49.5103C153.174 49.5103 155.94 49.5103 158.715 49.5103C159.109 49.5103 159.17 49.5703 159.099 49.9503C159.008 50.4303 158.897 50.9003 158.826 51.3803C158.766 51.7203 158.594 51.8403 158.251 51.8403C156.354 51.8303 154.466 51.8403 152.569 51.8303C152.266 51.8303 152.155 51.9103 152.104 52.2103C151.963 53.0303 151.791 53.8503 151.62 54.6603C151.569 54.9203 151.63 54.9903 151.902 54.9903C153.093 54.9803 154.284 54.9903 155.475 54.9903C155.889 54.9903 155.94 55.0503 155.869 55.4403C155.788 55.9103 155.687 56.3803 155.597 56.8403C155.516 57.2503 155.425 57.3203 155.001 57.3203C153.81 57.3203 152.619 57.3203 151.428 57.3203C151.196 57.3203 151.075 57.3803 151.034 57.6203C150.873 58.5103 150.701 59.4003 150.51 60.2903C150.459 60.5503 150.53 60.6003 150.782 60.6003C152.69 60.6003 154.587 60.6003 156.495 60.6003C156.939 60.6003 157 60.6703 156.919 61.1003C156.818 61.5903 156.717 62.0703 156.626 62.5603C156.576 62.8303 156.434 62.9403 156.152 62.9303C154.749 62.9303 153.356 62.9303 151.953 62.9303L151.943 62.9203Z" fill="white"/>
<path d="M169.585 49.4801C170.433 49.5101 171.472 49.4201 172.512 49.5301C174.208 49.7001 175.328 50.9001 175.328 52.5801C175.328 55.5301 173.158 57.7001 170.17 57.7201C169.343 57.7201 168.505 57.7201 167.677 57.7201C167.445 57.7201 167.334 57.7601 167.294 58.0201C167.011 59.5201 166.698 61.0101 166.416 62.5101C166.355 62.8101 166.224 62.9401 165.911 62.9301C165.295 62.9201 164.69 62.9301 164.074 62.9301C163.731 62.9301 163.65 62.8501 163.721 62.5301C164.296 59.6001 164.871 56.6701 165.447 53.7401C165.699 52.4801 165.941 51.2201 166.194 49.9501C166.274 49.5401 166.345 49.4801 166.789 49.4801C167.667 49.4801 168.535 49.4801 169.605 49.4801H169.585ZM170.009 51.8401C169.544 51.8401 169.151 51.8401 168.757 51.8401C168.565 51.8401 168.485 51.9101 168.454 52.0901C168.253 53.1501 168.051 54.2101 167.829 55.2701C167.778 55.5301 167.869 55.5701 168.091 55.5701C168.757 55.5701 169.423 55.5701 170.09 55.5701C171.553 55.5401 172.421 54.8101 172.603 53.4801C172.714 52.6601 172.209 52.0101 171.381 51.8801C170.907 51.8101 170.423 51.8701 170.019 51.8501L170.009 51.8401Z" fill="white"/>
<path d="M253.348 49.5C254.691 49.5 256.043 49.5 257.385 49.5C257.961 49.5 257.971 49.52 257.86 50.07C257.779 50.5 257.678 50.94 257.607 51.38C257.557 51.73 257.375 51.84 257.032 51.84C255.155 51.84 253.267 51.84 251.39 51.83C251.107 51.83 250.966 51.88 250.916 52.2C250.784 53.03 250.603 53.86 250.431 54.68C250.381 54.92 250.441 55 250.704 54.99C251.905 54.98 253.106 54.99 254.317 54.99C254.711 54.99 254.771 55.05 254.701 55.43C254.61 55.92 254.499 56.4 254.418 56.89C254.368 57.23 254.176 57.33 253.853 57.33C252.652 57.33 251.451 57.33 250.239 57.32C249.987 57.32 249.896 57.41 249.856 57.64C249.553 59.25 249.23 60.87 248.917 62.48C248.857 62.79 248.725 62.95 248.372 62.94C247.757 62.92 247.151 62.94 246.535 62.94C246.212 62.94 246.152 62.86 246.212 62.55C246.798 59.57 247.373 56.59 247.958 53.6C248.191 52.41 248.423 51.22 248.655 50.04C248.746 49.57 248.796 49.53 249.281 49.53C250.633 49.53 251.996 49.53 253.348 49.53V49.5Z" fill="white"/>
<path d="M306.519 49.5002C306.822 49.5002 307.135 49.5202 307.438 49.5002C307.781 49.4702 307.922 49.6202 308.003 49.9402C308.387 51.4302 308.79 52.9102 309.184 54.3902C309.194 54.4302 309.204 54.4802 309.214 54.5102C309.255 54.5902 309.214 54.7302 309.345 54.7502C309.436 54.7502 309.467 54.6402 309.517 54.5702C310.082 53.7102 310.658 52.8502 311.223 51.9902C311.687 51.2802 312.161 50.5802 312.626 49.8702C312.797 49.6002 313.009 49.4902 313.332 49.5002C313.958 49.5202 314.584 49.5002 315.199 49.5002C315.341 49.5002 315.512 49.4502 315.593 49.6002C315.674 49.7602 315.553 49.8902 315.462 50.0102C314.533 51.3502 313.605 52.6902 312.686 54.0302C311.869 55.2102 311.061 56.3902 310.234 57.5602C310.001 57.8902 309.991 58.2802 309.921 58.6402C309.658 59.9102 309.416 61.1902 309.174 62.4602C309.113 62.7802 308.962 62.9202 308.619 62.9102C308.043 62.8902 307.458 62.9102 306.883 62.9102C306.489 62.9102 306.428 62.8402 306.499 62.4402C306.772 61.0502 307.044 59.6602 307.327 58.2702C307.387 57.9702 307.408 57.6902 307.317 57.3802C306.59 54.9602 305.883 52.5302 305.167 50.1002C305.015 49.5702 305.076 49.5002 305.641 49.5002C305.934 49.5002 306.237 49.5002 306.529 49.5002H306.519Z" fill="white"/>
<path d="M129.838 49.5C131.352 49.5 132.856 49.5 134.37 49.5C134.814 49.5 134.855 49.55 134.764 49.97C134.663 50.46 134.562 50.94 134.481 51.44C134.431 51.75 134.269 51.86 133.967 51.86C132.967 51.86 131.978 51.86 130.979 51.86C130.737 51.86 130.656 51.94 130.616 52.16C129.96 55.55 129.293 58.93 128.627 62.32C128.516 62.91 128.496 62.93 127.89 62.93C127.335 62.93 126.77 62.93 126.215 62.93C125.892 62.93 125.821 62.85 125.882 62.54C126.538 59.18 127.204 55.81 127.87 52.45C127.981 51.87 127.991 51.87 127.396 51.87C126.528 51.87 125.67 51.87 124.802 51.87C124.439 51.87 124.368 51.78 124.439 51.44C124.54 50.94 124.651 50.45 124.731 49.94C124.782 49.62 124.943 49.51 125.266 49.51C126.79 49.51 128.304 49.51 129.828 49.51L129.838 49.5Z" fill="white"/>
<path d="M323.314 59.3102C323.314 61.4902 321.558 63.2402 319.368 63.2402C317.208 63.2402 315.432 61.4702 315.432 59.3202C315.432 57.1702 317.188 55.4302 319.368 55.4302C321.568 55.4302 323.314 57.1402 323.314 59.3102Z" fill="#57B89C"/>
<path d="M231.835 2L229.942 9.99321L249.692 17.8959L225.61 28.2519L223.059 39L267.388 19.213L267.469 15.9152L231.835 2Z" fill="#57B89C"/>
</svg>
