<svg width="10" height="10" viewBox="0 0 10 10" fill="none" xmlns="http://www.w3.org/2000/svg">
<g clip-path="url(#clip0_2054_18114)">
<path d="M2.25601 4.75584L4.16684 2.84501V9.16667C4.16684 9.38768 4.25464 9.59965 4.41092 9.75593C4.5672 9.91221 4.77916 10 5.00018 10C5.22119 10 5.43315 9.91221 5.58943 9.75593C5.74571 9.59965 5.83351 9.38768 5.83351 9.16667V2.84501L7.74434 4.75584C7.90151 4.90764 8.11201 4.99163 8.33051 4.98973C8.54901 4.98783 8.75802 4.90019 8.91253 4.74569C9.06703 4.59118 9.15467 4.38217 9.15657 4.16367C9.15847 3.94518 9.07447 3.73467 8.92268 3.57751L5.58934 0.244172C5.43307 0.087946 5.22115 0.000183105 5.00018 0.000183105C4.77921 0.000183105 4.56728 0.087946 4.41101 0.244172L1.07768 3.57751C0.925878 3.73467 0.841883 3.94518 0.843782 4.16367C0.84568 4.38217 0.933321 4.59118 1.08783 4.74569C1.24233 4.90019 1.45134 4.98783 1.66984 4.98973C1.88834 4.99163 2.09884 4.90764 2.25601 4.75584Z" fill="#57B89C"/>
</g>
<defs>
<clipPath id="clip0_2054_18114">
<rect width="10" height="10" fill="white"/>
</clipPath>
</defs>
</svg>
