<svg width="24" height="24" viewBox="0 0 24 24" fill="none" xmlns="http://www.w3.org/2000/svg">
<g clip-path="url(#clip0_1785_16118)">
<path d="M9.75814 19.0329C14.8745 19.0329 19.0221 14.8852 19.0221 9.76888C19.0221 4.65252 14.8745 0.504883 9.75814 0.504883C4.64177 0.504883 0.494141 4.65252 0.494141 9.76888C0.494141 14.8852 4.64177 19.0329 9.75814 19.0329Z" fill="white"/>
<path d="M9.75816 15.2742C7.62745 15.2739 5.56192 14.5394 3.90949 13.1942C2.25706 11.8491 1.1187 9.97551 0.686164 7.88916C0.422913 9.15865 0.429031 10.4693 0.704123 11.7362C0.979214 13.0032 1.51715 14.1984 2.28316 15.2444C3.04916 16.2904 4.02617 17.164 5.15101 17.8087C6.27586 18.4534 7.52349 18.8548 8.81322 18.9871C10.103 19.1193 11.4061 18.9794 12.6384 18.5763C13.8706 18.1733 15.0046 17.5161 15.9669 16.6473C16.9292 15.7785 17.6985 14.7174 18.2249 13.5326C18.7514 12.3478 19.0233 11.0657 19.0232 9.76916C19.0231 9.13761 18.9587 8.5077 18.8312 7.88916C18.3984 9.97559 17.2599 11.8492 15.6073 13.1943C13.9547 14.5394 11.889 15.274 9.75816 15.2742Z" fill="#57B89C"/>
<path d="M11.5 23.5C11.469 22.7038 11.6031 21.9098 11.8937 21.1679C12.1842 20.4259 12.6251 19.752 13.1885 19.1886C13.752 18.6252 14.4258 18.1843 15.1678 17.8937C15.9097 17.6032 16.7037 17.4691 17.5 17.5C18.2963 17.4688 19.0904 17.6026 19.8325 17.8931C20.5746 18.1836 21.2486 18.6244 21.8121 19.1879C22.3756 19.7514 22.8164 20.4254 23.1069 21.1675C23.3974 21.9096 23.5312 22.7037 23.5 23.5H11.5Z" fill="#57B89C" stroke="#36425E" stroke-linecap="round" stroke-linejoin="round"/>
<path d="M21.4931 11.8129C20.7782 12.2557 19.9542 12.4912 19.1131 12.4929C18.1321 12.4373 17.1836 12.1219 16.3647 11.5789C15.5458 11.0359 14.8861 10.2849 14.4531 9.40286C14.9737 8.79211 15.6659 8.35206 16.4399 8.13989C17.2138 7.92772 18.0337 7.95325 18.7929 8.21316C19.5521 8.47307 20.2157 8.95535 20.6972 9.5973C21.1787 10.2393 21.4561 11.0112 21.4931 11.8129Z" fill="#C20517" stroke="#36425E" stroke-linecap="round" stroke-linejoin="round"/>
<path d="M21.5 11.9928C21.4997 12.6367 21.3439 13.271 21.0459 13.8418C20.748 14.4126 20.3166 14.903 19.7885 15.2714C19.2605 15.6398 18.6512 15.8753 18.0127 15.9578C17.3741 16.0403 16.725 15.9675 16.1206 15.7454C15.5162 15.5234 14.9744 15.1587 14.5411 14.6824C14.1078 14.2061 13.7959 13.6323 13.6319 13.0096C13.4679 12.387 13.4567 11.7339 13.5991 11.106C13.7415 10.4781 14.0334 9.8938 14.45 9.40283C14.883 10.2849 15.5427 11.0359 16.3616 11.5789C17.1805 12.1218 18.129 12.4373 19.11 12.4928C19.951 12.4911 20.775 12.2557 21.49 11.8128C21.4983 11.8725 21.5017 11.9327 21.5 11.9928Z" fill="white" stroke="#36425E" stroke-linecap="round" stroke-linejoin="round"/>
<path d="M21.5002 11.7998C21.4976 11.7998 21.495 11.8009 21.4932 11.8027C21.4913 11.8046 21.4902 11.8072 21.4902 11.8098" stroke="#36425E" stroke-linecap="round" stroke-linejoin="round"/>
<path d="M1.73682 14.4932H11.5118" stroke="#36425E" stroke-linecap="round" stroke-linejoin="round"/>
<path d="M2.13477 4.49316H17.3818" stroke="#36425E" stroke-linecap="round" stroke-linejoin="round"/>
<path d="M12.012 9.49316H0.5" stroke="#36425E" stroke-linecap="round" stroke-linejoin="round"/>
<path d="M9.012 19.0001C6.67215 18.8609 4.47753 17.8195 2.88995 16.095C1.30237 14.3705 0.445624 12.0975 0.499997 9.75412C0.502879 7.58642 1.26591 5.48838 2.65624 3.82528C4.04658 2.16218 5.97615 1.03935 8.10901 0.652296C10.2419 0.265237 12.4429 0.63846 14.329 1.70699C16.215 2.77551 17.6666 4.47166 18.431 6.50012" stroke="#36425E" stroke-linecap="round" stroke-linejoin="round"/>
<path d="M8.98315 0.522949C4.18315 5.75095 4.19215 12.5659 9.01215 18.9919" stroke="#36425E" stroke-linecap="round" stroke-linejoin="round"/>
<path d="M10.542 0.522949C12.3368 2.45221 13.5015 4.88237 13.881 7.48995" stroke="#36425E" stroke-linecap="round" stroke-linejoin="round"/>
</g>
<defs>
<clipPath id="clip0_1785_16118">
<rect width="24" height="24" fill="white"/>
</clipPath>
</defs>
</svg>
