<svg width="321" height="63" viewBox="0 0 321 63" fill="none" xmlns="http://www.w3.org/2000/svg">
<path d="M83 1V38H92.1198V24.8008H105.83V16.9173H92.1198V9.02385H107V1H83Z" fill="white"/>
<path d="M37 1V38H58V30.2332H46.2257V1H37Z" fill="white"/>
<path d="M60 1V38H81V30.2332H69.2155V1H60Z" fill="white"/>
<path d="M128.16 0C116.71 0 108.7 8.49 108.7 19.28C108.7 30.07 116.71 38.56 128.16 38.56C139.61 38.56 147.62 30.07 147.62 19.28C147.62 8.49 139.54 0 128.16 0ZM128.16 30.18C121.71 30.18 117.68 25.36 117.68 19.28C117.68 13.2 121.72 8.38 128.16 8.38C134.6 8.38 138.64 13.2 138.64 19.28C138.64 25.36 134.54 30.18 128.16 30.18Z" fill="white"/>
<path d="M301.792 1H289V38H301.792C313.541 38 321 29.3006 321 19.4399C321 9.01867 312.618 1 301.792 1ZM301.613 29.7411H298.008V9.20888H301.613C307.92 9.20888 311.773 13.7137 311.773 19.4499C311.773 25.6767 307.374 29.7511 301.613 29.7511V29.7411Z" fill="white"/>
<path d="M179 1H189.034L193.041 21.7148H193.471L197.389 1H208.611L212.529 21.7148H212.959L216.966 1H227L218.255 38H207.652L203.205 15.6918H202.775L198.328 38H187.725L179 1Z" fill="white"/>
<path d="M35 37.99L22.6152 1H12.3748L0 37.99H1.85371C1.85371 37.99 1.85371 37.99 1.85371 38H9.8998C9.8998 33.8002 13.2866 30.3785 17.4549 30.3785C21.6232 30.3785 25.01 33.8002 25.01 38H33.0661C33.0661 38 33.0661 38 33.0661 37.99H34.99H35ZM13.9279 22.6573L16.8637 12.3624L20.2605 22.5077C19.3487 22.3381 18.4168 22.2583 17.4649 22.2583C16.2625 22.2583 15.0802 22.398 13.9279 22.6573Z" fill="white"/>
<path d="M288 37.99L277.956 24.2391C283.472 22.8851 286.76 19.2442 286.76 12.775C286.76 5.80428 281.556 1 273.56 1H258V13.2464V19.5752V38H267.106V24.1889L276.585 38H287.99L288 37.99ZM274.427 17.0276H267.116V8.71293H274.185C276.232 8.71293 277.845 10.6286 277.845 12.785C277.845 14.9414 276.484 17.0377 274.437 17.0377L274.427 17.0276Z" fill="white"/>
<path d="M180 37.99L169.956 24.2391C175.472 22.8851 178.76 19.2442 178.76 12.775C178.76 5.80428 173.556 1 165.56 1H150V13.2464V19.5752V38H159.106V24.1889L168.585 38H179.99L180 37.99ZM166.427 17.0276H159.116V8.71293H166.185C168.232 8.71293 169.845 10.6286 169.845 12.785C169.845 14.9414 168.484 17.0377 166.437 17.0377L166.427 17.0276Z" fill="white"/>
<path d="M227.5 11.29L241.38 16.88L224.47 24.08L227.5 11.29Z" fill="white"/>
<path d="M190.96 56.46C191.12 56.39 191.13 56.22 191.18 56.09C192.17 53.72 193.16 51.34 194.13 48.96C194.27 48.62 194.45 48.47 194.83 48.49C195.44 48.52 196.04 48.51 196.65 48.49C196.94 48.49 197.04 48.6 197.05 48.89C197.15 51.33 197.27 53.78 197.39 56.22C197.39 56.29 197.37 56.37 197.44 56.44C197.58 56.4 197.58 56.26 197.62 56.17C198.62 53.78 199.61 51.38 200.61 48.99C200.81 48.51 200.82 48.5 201.35 48.5C201.88 48.5 202.41 48.5 202.94 48.5C203.4 48.5 203.46 48.59 203.28 49.02C202.54 50.74 201.8 52.45 201.06 54.17C200.01 56.61 198.95 59.05 197.9 61.49C197.77 61.8 197.59 61.94 197.24 61.93C196.64 61.9 196.05 61.91 195.45 61.93C195.14 61.93 195.03 61.83 195.02 61.52C194.97 59.88 194.91 58.23 194.86 56.59C194.83 55.62 194.79 54.64 194.75 53.67C194.75 53.61 194.77 53.54 194.69 53.48C194.55 53.5 194.55 53.65 194.51 53.74C193.46 56.3 192.41 58.86 191.37 61.42C191.16 61.92 191.15 61.93 190.61 61.93C190.08 61.93 189.55 61.93 189.02 61.93C188.76 61.93 188.66 61.83 188.64 61.57C188.42 58.1 188.2 54.64 187.98 51.17C187.94 50.47 187.88 49.77 187.84 49.07C187.81 48.59 187.88 48.51 188.35 48.51C188.96 48.51 189.56 48.52 190.17 48.51C190.49 48.51 190.61 48.61 190.62 48.93C190.67 50.61 190.74 52.28 190.8 53.96C190.83 54.74 190.85 55.52 190.88 56.3C190.88 56.36 190.88 56.43 190.95 56.48L190.96 56.46Z" fill="white"/>
<path d="M269.69 53.25C269.47 53.42 269.33 53.66 269.16 53.87C268.52 54.66 267.89 55.46 267.26 56.26C267.06 56.52 266.83 56.65 266.49 56.64C265.32 56.61 265.56 56.79 265.13 55.72C264.83 54.99 264.54 54.26 264.24 53.52C264.2 53.42 264.19 53.31 264.06 53.21C263.9 53.6 263.87 54 263.79 54.39C263.32 56.76 262.87 59.12 262.41 61.49C262.35 61.79 262.21 61.91 261.9 61.9C261.3 61.88 260.71 61.9 260.11 61.9C259.73 61.9 259.67 61.84 259.74 61.46C259.96 60.3 260.19 59.15 260.42 57.99C261 55.02 261.57 52.05 262.15 49.08C262.26 48.53 262.29 48.49 262.87 48.49C263.4 48.49 263.93 48.5 264.46 48.49C264.75 48.49 264.91 48.59 265.02 48.86C265.57 50.23 266.14 51.6 266.71 52.97C266.84 53.28 266.86 53.28 267.07 53.02C268.17 51.67 269.27 50.32 270.35 48.95C270.61 48.62 270.88 48.45 271.31 48.48C271.84 48.51 272.37 48.48 272.9 48.48C273.25 48.48 273.32 48.56 273.25 48.88C272.68 51.81 272.11 54.74 271.54 57.67C271.29 58.94 271.04 60.22 270.8 61.49C270.74 61.79 270.6 61.91 270.29 61.9C269.69 61.88 269.1 61.9 268.5 61.9C268.12 61.9 268.06 61.83 268.13 61.46C268.43 59.89 268.74 58.32 269.05 56.75C269.27 55.64 269.48 54.52 269.7 53.41C269.7 53.36 269.74 53.31 269.66 53.24L269.69 53.25Z" fill="white"/>
<path d="M295.58 56.74C295.72 56.01 295.86 55.32 295.99 54.64C296.36 52.72 296.74 50.8 297.11 48.88C297.16 48.63 297.29 48.5 297.56 48.51C298.18 48.51 298.8 48.51 299.41 48.51C299.73 48.51 299.8 48.6 299.74 48.9C298.92 53.1 298.1 57.31 297.29 61.51C297.23 61.79 297.11 61.94 296.79 61.93C296.23 61.91 295.66 61.91 295.1 61.93C294.81 61.94 294.67 61.83 294.57 61.57C293.6 59.06 292.62 56.56 291.63 54.05C291.57 53.9 291.55 53.73 291.37 53.59C291.28 54.03 291.2 54.44 291.12 54.84C290.7 57.03 290.28 59.22 289.87 61.4C289.78 61.87 289.72 61.91 289.25 61.91C288.69 61.91 288.12 61.91 287.56 61.91C287.19 61.91 287.14 61.85 287.2 61.49C287.62 59.29 288.05 57.1 288.48 54.9C288.86 52.95 289.24 51 289.62 49.04C289.72 48.52 289.75 48.49 290.27 48.49C290.78 48.49 291.29 48.51 291.8 48.49C292.13 48.48 292.3 48.59 292.43 48.91C293.41 51.42 294.4 53.92 295.39 56.42C295.43 56.52 295.44 56.63 295.6 56.74H295.58Z" fill="white"/>
<path d="M220.56 48.48C221.37 48.51 222.37 48.43 223.36 48.51C225.35 48.68 226.44 50.11 226.17 52.17C225.92 54.05 224.93 55.39 223.12 56.06C222.89 56.15 222.94 56.27 222.98 56.44C223.43 58.09 223.88 59.73 224.33 61.38C224.45 61.83 224.39 61.92 223.91 61.92C223.3 61.92 222.7 61.91 222.09 61.92C221.79 61.92 221.64 61.82 221.57 61.52C221.19 59.93 220.78 58.35 220.4 56.77C220.32 56.44 220.18 56.32 219.85 56.35C219.46 56.38 219.07 56.37 218.68 56.35C218.47 56.35 218.37 56.43 218.33 56.63C218.03 58.23 217.72 59.84 217.41 61.44C217.33 61.84 217.26 61.91 216.86 61.91C216.25 61.91 215.65 61.91 215.04 61.91C214.77 61.91 214.67 61.81 214.72 61.53C215.26 58.77 215.79 56.01 216.33 53.25C216.61 51.83 216.88 50.41 217.16 48.98C217.25 48.51 217.32 48.45 217.81 48.45C218.67 48.45 219.52 48.45 220.57 48.45L220.56 48.48ZM220.29 54.27C220.7 54.27 221.11 54.28 221.52 54.27C222.45 54.23 223.23 53.56 223.44 52.65C223.66 51.66 223.15 50.9 222.17 50.85C221.34 50.81 220.5 50.85 219.67 50.84C219.53 50.84 219.46 50.89 219.43 51.04C219.24 52.04 219.05 53.03 218.85 54.03C218.81 54.22 218.87 54.28 219.06 54.27C219.47 54.26 219.88 54.27 220.29 54.27Z" fill="white"/>
<path d="M139.31 56.32C138.69 56.32 138.07 56.33 137.46 56.32C137.23 56.32 137.13 56.38 137.09 56.61C136.79 58.21 136.47 59.82 136.17 61.42C136.08 61.88 136.03 61.93 135.55 61.93C134.98 61.93 134.4 61.93 133.83 61.93C133.48 61.93 133.42 61.86 133.49 61.53C133.96 59.11 134.43 56.69 134.9 54.27C135.24 52.53 135.58 50.79 135.91 49.05C136.01 48.55 136.04 48.52 136.54 48.52C137.13 48.52 137.71 48.52 138.3 48.52C138.58 48.52 138.66 48.63 138.61 48.9C138.3 50.46 138 52.02 137.7 53.58C137.62 54 137.61 53.99 138.03 53.99C139.21 53.99 140.39 53.98 141.57 53.99C141.88 53.99 141.97 53.88 142.03 53.6C142.32 52.04 142.64 50.48 142.93 48.92C142.99 48.62 143.13 48.49 143.43 48.5C144.03 48.51 144.62 48.5 145.22 48.5C145.61 48.5 145.67 48.58 145.59 48.97C145.31 50.38 145.04 51.79 144.76 53.2C144.22 55.96 143.68 58.72 143.15 61.48C143.09 61.79 142.95 61.93 142.63 61.92C142.05 61.9 141.46 61.92 140.87 61.92C140.47 61.92 140.41 61.85 140.48 61.47C140.75 60.11 141.01 58.75 141.28 57.4C141.33 57.15 141.37 56.89 141.43 56.64C141.49 56.41 141.44 56.31 141.17 56.32C140.55 56.34 139.93 56.32 139.32 56.32H139.31Z" fill="white"/>
<path d="M178.76 62.13C178.15 62.16 177.48 62.05 176.85 61.78C175.47 61.2 174.69 59.9 174.73 58.3C174.76 57.26 175.05 56.27 175.23 55.26C175.37 54.44 175.53 53.62 175.72 52.81C176.42 49.93 179.12 48.06 182.07 48.36C183.07 48.46 183.99 48.74 184.7 49.48C185.52 50.33 185.79 51.4 185.64 52.54C185.41 54.24 185.05 55.93 184.68 57.6C184.36 59.06 183.55 60.23 182.32 61.09C181.28 61.81 180.12 62.14 178.78 62.12L178.76 62.13ZM182.95 52.68C182.96 51.43 182.29 50.73 181.18 50.68C179.83 50.62 178.65 51.54 178.34 52.96C178 54.51 177.7 56.08 177.43 57.64C177.2 58.98 178.14 59.94 179.48 59.79C180.78 59.65 181.73 58.82 182.02 57.51C182.24 56.52 182.42 55.52 182.61 54.52C182.73 53.86 182.91 53.21 182.94 52.68H182.95Z" fill="white"/>
<path d="M236.03 62.13C235.4 62.16 234.72 62.05 234.07 61.77C232.7 61.19 231.92 59.9 231.97 58.31C232 57.14 232.35 56.03 232.54 54.89C232.65 54.21 232.78 53.53 232.95 52.86C233.66 49.93 236.33 48.06 239.33 48.37C240.32 48.47 241.22 48.76 241.93 49.48C242.73 50.29 243.03 51.32 242.89 52.41C242.65 54.3 242.32 56.18 241.8 58.01C241.07 60.57 238.82 62.14 236.04 62.14L236.03 62.13ZM240.19 52.68C240.19 51.43 239.53 50.73 238.42 50.68C237.07 50.63 235.89 51.55 235.59 52.97C235.26 54.52 234.95 56.09 234.69 57.65C234.46 58.99 235.4 59.94 236.75 59.8C238.04 59.66 238.99 58.83 239.28 57.54C239.5 56.54 239.68 55.53 239.88 54.52C240 53.86 240.18 53.21 240.21 52.68H240.19Z" fill="white"/>
<path d="M283.3 61.92C282.96 61.92 282.63 61.92 282.29 61.92C282.04 61.92 281.94 61.82 281.92 61.58C281.87 61.07 281.8 60.57 281.76 60.06C281.74 59.82 281.63 59.76 281.41 59.76C280.03 59.76 278.66 59.76 277.28 59.76C277.05 59.76 276.93 59.85 276.83 60.05C276.6 60.55 276.34 61.04 276.11 61.54C275.99 61.8 275.81 61.93 275.5 61.92C274.87 61.9 274.24 61.92 273.61 61.92C273.16 61.92 273.1 61.83 273.31 61.43C274.36 59.36 275.41 57.29 276.46 55.22C277.53 53.11 278.61 51 279.67 48.89C279.81 48.61 279.99 48.5 280.3 48.5C281.11 48.51 281.93 48.52 282.74 48.5C283.06 48.5 283.2 48.59 283.24 48.93C283.5 51.26 283.79 53.59 284.07 55.92C284.28 57.66 284.49 59.4 284.69 61.14C284.69 61.16 284.69 61.18 284.7 61.2C284.79 61.87 284.74 61.92 284.06 61.92C283.8 61.92 283.54 61.92 283.28 61.92H283.3ZM280.96 51.67C280.84 51.68 280.83 51.77 280.79 51.83C279.89 53.7 278.99 55.57 278.09 57.43C277.98 57.66 278.09 57.68 278.27 57.68C279.27 57.68 280.26 57.68 281.26 57.68C281.51 57.68 281.54 57.57 281.52 57.36C281.37 55.78 281.23 54.19 281.06 52.61C281.03 52.29 281.05 51.97 280.95 51.66L280.96 51.67Z" fill="white"/>
<path d="M207.5 61.92C206.12 61.92 204.75 61.92 203.37 61.92C203.01 61.92 202.96 61.85 203.03 61.49C203.76 57.72 204.49 53.95 205.23 50.19C205.31 49.76 205.4 49.32 205.48 48.88C205.53 48.61 205.67 48.49 205.94 48.49C208.73 48.49 211.51 48.49 214.3 48.49C214.6 48.49 214.68 48.61 214.63 48.89C214.53 49.39 214.43 49.89 214.34 50.39C214.29 50.72 214.11 50.83 213.78 50.83C211.92 50.83 210.05 50.83 208.19 50.82C207.88 50.82 207.73 50.89 207.68 51.22C207.55 52.03 207.38 52.84 207.21 53.64C207.15 53.92 207.24 53.98 207.51 53.98C208.68 53.97 209.85 53.98 211.02 53.98C211.44 53.98 211.5 54.04 211.42 54.46C211.33 54.94 211.22 55.41 211.14 55.89C211.09 56.21 210.92 56.32 210.6 56.32C209.41 56.32 208.22 56.32 207.02 56.31C206.76 56.31 206.66 56.39 206.62 56.64C206.46 57.52 206.29 58.4 206.11 59.28C206.06 59.52 206.11 59.6 206.37 59.6C208.26 59.59 210.14 59.6 212.03 59.6C212.48 59.6 212.54 59.67 212.45 60.12C212.35 60.59 212.25 61.05 212.17 61.52C212.12 61.82 211.97 61.94 211.66 61.93C210.27 61.92 208.89 61.93 207.5 61.93V61.92Z" fill="white"/>
<path d="M150.54 61.92C149.16 61.92 147.79 61.92 146.41 61.92C146.02 61.92 145.97 61.86 146.04 61.49C146.84 57.39 147.63 53.3 148.43 49.2C148.44 49.13 148.45 49.05 148.46 48.98C148.54 48.57 148.61 48.51 149.02 48.51C151.76 48.51 154.5 48.51 157.25 48.51C157.64 48.51 157.7 48.57 157.63 48.95C157.54 49.43 157.43 49.9 157.36 50.38C157.3 50.72 157.13 50.84 156.79 50.84C154.91 50.83 153.04 50.84 151.16 50.83C150.86 50.83 150.75 50.91 150.7 51.21C150.56 52.03 150.39 52.85 150.22 53.66C150.17 53.92 150.23 53.99 150.5 53.99C151.68 53.98 152.86 53.99 154.04 53.99C154.45 53.99 154.5 54.05 154.43 54.44C154.35 54.91 154.25 55.38 154.16 55.84C154.08 56.25 153.99 56.32 153.57 56.32C152.39 56.32 151.21 56.32 150.03 56.32C149.8 56.32 149.68 56.38 149.64 56.62C149.48 57.51 149.31 58.4 149.12 59.29C149.07 59.55 149.14 59.6 149.39 59.6C151.28 59.6 153.16 59.6 155.05 59.6C155.49 59.6 155.55 59.67 155.47 60.1C155.37 60.59 155.27 61.07 155.18 61.56C155.13 61.83 154.99 61.94 154.71 61.93C153.32 61.93 151.94 61.93 150.55 61.93L150.54 61.92Z" fill="white"/>
<path d="M168.02 48.48C168.86 48.51 169.89 48.42 170.92 48.53C172.6 48.7 173.71 49.9 173.71 51.58C173.71 54.53 171.56 56.7 168.6 56.72C167.78 56.72 166.95 56.72 166.13 56.72C165.9 56.72 165.79 56.76 165.75 57.02C165.47 58.52 165.16 60.01 164.88 61.51C164.82 61.81 164.69 61.94 164.38 61.93C163.77 61.92 163.17 61.93 162.56 61.93C162.22 61.93 162.14 61.85 162.21 61.53C162.78 58.6 163.35 55.67 163.92 52.74C164.17 51.48 164.41 50.22 164.66 48.95C164.74 48.54 164.81 48.48 165.25 48.48C166.12 48.48 166.98 48.48 168.04 48.48H168.02ZM168.44 50.84C167.98 50.84 167.59 50.84 167.2 50.84C167.01 50.84 166.93 50.91 166.9 51.09C166.7 52.15 166.5 53.21 166.28 54.27C166.23 54.53 166.32 54.57 166.54 54.57C167.2 54.57 167.86 54.57 168.52 54.57C169.97 54.54 170.83 53.81 171.01 52.48C171.12 51.66 170.62 51.01 169.8 50.88C169.33 50.81 168.85 50.87 168.45 50.85L168.44 50.84Z" fill="white"/>
<path d="M251.01 48.5C252.34 48.5 253.68 48.5 255.01 48.5C255.58 48.5 255.59 48.52 255.48 49.07C255.4 49.5 255.3 49.94 255.23 50.38C255.18 50.73 255 50.84 254.66 50.84C252.8 50.84 250.93 50.84 249.07 50.83C248.79 50.83 248.65 50.88 248.6 51.2C248.47 52.03 248.29 52.86 248.12 53.68C248.07 53.92 248.13 54 248.39 53.99C249.58 53.98 250.77 53.99 251.97 53.99C252.36 53.99 252.42 54.05 252.35 54.43C252.26 54.92 252.15 55.4 252.07 55.89C252.02 56.23 251.83 56.33 251.51 56.33C250.32 56.33 249.13 56.33 247.93 56.32C247.68 56.32 247.59 56.41 247.55 56.64C247.25 58.25 246.93 59.87 246.62 61.48C246.56 61.79 246.43 61.95 246.08 61.94C245.47 61.92 244.87 61.94 244.26 61.94C243.94 61.94 243.88 61.86 243.94 61.55C244.52 58.57 245.09 55.59 245.67 52.6C245.9 51.41 246.13 50.22 246.36 49.04C246.45 48.57 246.5 48.53 246.98 48.53C248.32 48.53 249.67 48.53 251.01 48.53V48.5Z" fill="white"/>
<path d="M303.69 48.5C303.99 48.5 304.3 48.52 304.6 48.5C304.94 48.47 305.08 48.62 305.16 48.94C305.54 50.43 305.94 51.91 306.33 53.39C306.34 53.43 306.35 53.48 306.36 53.51C306.4 53.59 306.36 53.73 306.49 53.75C306.58 53.75 306.61 53.64 306.66 53.57C307.22 52.71 307.79 51.85 308.35 50.99C308.81 50.28 309.28 49.58 309.74 48.87C309.91 48.6 310.12 48.49 310.44 48.5C311.06 48.52 311.68 48.5 312.29 48.5C312.43 48.5 312.6 48.45 312.68 48.6C312.76 48.76 312.64 48.89 312.55 49.01C311.63 50.35 310.71 51.69 309.8 53.03C308.99 54.21 308.19 55.39 307.37 56.56C307.14 56.89 307.13 57.28 307.06 57.64C306.8 58.91 306.56 60.19 306.32 61.46C306.26 61.78 306.11 61.92 305.77 61.91C305.2 61.89 304.62 61.91 304.05 61.91C303.66 61.91 303.6 61.84 303.67 61.44C303.94 60.05 304.21 58.66 304.49 57.27C304.55 56.97 304.57 56.69 304.48 56.38C303.76 53.96 303.06 51.53 302.35 49.1C302.2 48.57 302.26 48.5 302.82 48.5C303.11 48.5 303.41 48.5 303.7 48.5H303.69Z" fill="white"/>
<path d="M128.64 48.5C130.14 48.5 131.63 48.5 133.13 48.5C133.57 48.5 133.61 48.55 133.52 48.97C133.42 49.46 133.32 49.94 133.24 50.44C133.19 50.75 133.03 50.86 132.73 50.86C131.74 50.86 130.76 50.86 129.77 50.86C129.53 50.86 129.45 50.94 129.41 51.16C128.76 54.55 128.1 57.93 127.44 61.32C127.33 61.91 127.31 61.93 126.71 61.93C126.16 61.93 125.6 61.93 125.05 61.93C124.73 61.93 124.66 61.85 124.72 61.54C125.37 58.18 126.03 54.81 126.69 51.45C126.8 50.87 126.81 50.87 126.22 50.87C125.36 50.87 124.51 50.87 123.65 50.87C123.29 50.87 123.22 50.78 123.29 50.44C123.39 49.94 123.5 49.45 123.58 48.94C123.63 48.62 123.79 48.51 124.11 48.51C125.62 48.51 127.12 48.51 128.63 48.51L128.64 48.5Z" fill="white"/>
<path d="M320.33 58.31C320.33 60.49 318.59 62.24 316.42 62.24C314.28 62.24 312.52 60.47 312.52 58.32C312.52 56.17 314.26 54.43 316.42 54.43C318.6 54.43 320.33 56.14 320.33 58.31Z" fill="white"/>
<path d="M229.696 1L227.82 8.99321L247.388 16.8959L223.527 27.2519L221 38L264.92 18.213L265 14.9152L229.696 1Z" fill="white"/>
</svg>
