<svg width="200" height="40" viewBox="0 0 200 40" fill="none" xmlns="http://www.w3.org/2000/svg">
<g clip-path="url(#clip0_472_3224)">
<path d="M52.248 0.475098V23.3645H57.8689V15.198H66.3177V10.3174H57.8689V5.43293H67.0411V0.475098H52.248Z" fill="#57B89C"/>
<path d="M23.4697 0.45166V23.3642H36.2782V18.5531H29.0945V0.45166H23.4697Z" fill="#36425E"/>
<path d="M37.8379 0.45166V23.3642H50.6464V18.5531H43.4626V0.45166H37.8379Z" fill="#36425E"/>
<path d="M80.0616 0C72.9436 0 67.9648 5.27059 67.9648 11.9621C67.9648 18.6536 72.9436 23.9242 80.0616 23.9242C87.1795 23.9242 92.1583 18.6536 92.1583 11.9621C92.1583 5.27059 87.1409 0 80.0616 0ZM80.0616 18.727C76.0538 18.727 73.5432 15.7345 73.5432 11.9621C73.5432 8.18968 76.0538 5.19722 80.0616 5.19722C84.0693 5.19722 86.5761 8.18968 86.5761 11.9621C86.5761 15.7345 84.0306 18.727 80.0616 18.727Z" fill="#57B89C"/>
<path d="M188.061 0.455566H180.058V23.3913H188.061C195.415 23.3913 200.089 18.001 200.089 11.8848C200.089 5.42112 194.843 0.455566 188.061 0.455566ZM187.945 18.2713H185.686V5.53695H187.945C191.891 5.53695 194.301 8.32863 194.301 11.881C194.301 15.7422 191.543 18.2675 187.945 18.2675V18.2713Z" fill="#57B89C"/>
<path d="M111.551 1.13525H117.791L120.286 13.9661H120.553L122.99 1.13525H129.972L132.41 13.9661H132.677L135.172 1.13525H141.412L135.972 24.044H129.377L126.615 10.2323H126.348L123.586 24.044H116.99L111.551 1.13525Z" fill="#57B89C"/>
<path d="M22.1005 23.4105L14.4177 0.405273H8.06564L0.386719 23.4105H1.53565C1.53565 23.4105 1.53565 23.4144 1.53565 23.4182H6.52985C6.52985 20.8042 8.6343 18.6766 11.2184 18.6766C13.8026 18.6766 15.907 20.8042 15.907 23.4182H20.9051C20.9051 23.4182 20.9051 23.4144 20.9051 23.4105H22.1005ZM9.02502 13.8771L10.8432 7.47134L12.9515 13.7806C12.3867 13.6763 11.8064 13.6262 11.2184 13.6262C10.4718 13.6262 9.73682 13.7111 9.02502 13.8771Z" fill="#36425E"/>
<path d="M179.199 23.4144L173.01 14.9081C176.41 14.0702 178.437 11.8191 178.437 7.81496C178.437 3.50582 175.226 0.528809 170.298 0.528809H160.708V8.10069V12.0198V23.4182H166.325V14.8772L172.17 23.4182H179.199V23.4144ZM170.832 10.4483H166.321V5.3013H170.677C171.938 5.3013 172.932 6.48284 172.932 7.81882C172.932 9.15481 172.093 10.4483 170.832 10.4483Z" fill="#57B89C"/>
<path d="M112.101 23.4144L105.911 14.9081C109.312 14.0702 111.339 11.8191 111.339 7.81496C111.339 3.50582 108.128 0.528809 103.199 0.528809H93.6094V8.10069V12.0198V23.4182H99.2264V14.8772L105.072 23.4182H112.101V23.4144ZM103.733 10.4483H99.2225V5.3013H103.578C104.84 5.3013 105.834 6.48284 105.834 7.81882C105.834 9.15481 104.994 10.4483 103.733 10.4483Z" fill="#57B89C"/>
<path d="M143.342 1.16992L142.177 6.10458L154.309 10.9852L139.52 17.3717L137.949 24.0091L165.176 11.796L165.226 9.76117L143.342 1.16992Z" fill="#36425E"/>
<path d="M3.57756 37.0311C5.41576 37.0311 6.78574 35.688 6.78574 33.9257C6.78574 32.1806 5.42443 30.8204 3.58623 30.8204C1.74803 30.8204 0.386719 32.1635 0.386719 33.9257C0.386719 35.7051 1.73936 37.0311 3.57756 37.0311ZM3.58623 35.9446C2.41568 35.9446 1.58328 35.0892 1.58328 33.9257C1.58328 32.7794 2.41568 31.9069 3.58623 31.9069C4.74811 31.9069 5.58051 32.7794 5.58051 33.9257C5.58051 35.0892 4.74811 35.9446 3.58623 35.9446Z" fill="#36425E"/>
<path d="M7.80212 36.9199H8.92932V34.3449C8.92932 33.7803 9.3195 33.3526 9.86576 33.3526C10.386 33.3526 10.7415 33.7204 10.7415 34.2679V36.9199H11.8687V33.9771C11.8687 33.019 11.2444 32.3089 10.2213 32.3089C9.57095 32.3089 9.12008 32.634 8.93799 32.9676H8.87729V32.4201H7.80212V36.9199Z" fill="#36425E"/>
<path d="M14.2667 36.9199H14.6916V35.9446H14.5095C14.2754 35.9446 14.1453 35.8078 14.1453 35.5511V30.5039H13.0181V35.6538C13.0181 36.4494 13.469 36.9199 14.2667 36.9199Z" fill="#36425E"/>
<path d="M16.1305 31.8213C16.538 31.8213 16.8241 31.5732 16.8241 31.1712C16.8241 30.7862 16.538 30.5296 16.1305 30.5296C15.7229 30.5296 15.4368 30.7862 15.4368 31.1712C15.4368 31.5732 15.7229 31.8213 16.1305 31.8213ZM15.5669 36.9199H16.6941V32.4201H15.5669V36.9199Z" fill="#36425E"/>
<path d="M17.8446 36.9199H18.9718V34.3449C18.9718 33.7803 19.362 33.3526 19.9083 33.3526C20.4285 33.3526 20.784 33.7204 20.784 34.2679V36.9199H21.9112V33.9771C21.9112 33.019 21.2869 32.3089 20.2638 32.3089C19.6135 32.3089 19.1626 32.634 18.9805 32.9676H18.9198V32.4201H17.8446V36.9199Z" fill="#36425E"/>
<path d="M25.0722 37.0311C26.2515 37.0311 27.0665 36.4322 27.292 35.5169H26.2428C26.0867 35.8848 25.6619 36.1414 25.1069 36.1414C24.3786 36.1414 23.9017 35.6794 23.867 34.9951H27.3353V34.6443C27.3353 33.3783 26.5376 32.3089 25.0722 32.3089C23.737 32.3089 22.7745 33.2756 22.7745 34.6957C22.7745 36.0387 23.7283 37.0311 25.0722 37.0311ZM23.8844 34.208C23.9537 33.6434 24.4393 33.1986 25.0722 33.1986C25.7312 33.1986 26.2081 33.6007 26.2601 34.208H23.8844Z" fill="#36425E"/>
<path d="M30.6306 38.8874H31.7578V36.3381H31.8185C31.9659 36.5862 32.3995 37.0311 33.2058 37.0311C34.4544 37.0311 35.3215 36.0558 35.3215 34.6529C35.3215 33.2499 34.4458 32.3089 33.1712 32.3089C32.3388 32.3089 31.9226 32.8051 31.8012 32.9933H31.7405V32.4201H30.6306V38.8874ZM32.9544 36.0216C32.252 36.0216 31.7318 35.5083 31.7318 34.67C31.7318 33.9086 32.2 33.3184 32.9457 33.3184C33.6827 33.3184 34.177 33.8488 34.177 34.67C34.177 35.4656 33.6827 36.0216 32.9544 36.0216Z" fill="#36425E"/>
<path d="M38.4625 37.0311C39.8845 37.0311 40.8903 36.0045 40.8903 34.67C40.8903 33.3355 39.8932 32.3089 38.4625 32.3089C37.0231 32.3089 36.0347 33.3355 36.0347 34.67C36.0347 36.0131 37.0318 37.0311 38.4625 37.0311ZM38.4625 36.0216C37.7168 36.0216 37.1792 35.4656 37.1792 34.67C37.1792 33.8915 37.7081 33.3184 38.4625 33.3184C39.2082 33.3184 39.7458 33.8915 39.7458 34.67C39.7458 35.457 39.2082 36.0216 38.4625 36.0216Z" fill="#36425E"/>
<path d="M41.884 36.9199H43.0112V34.7898C43.0112 33.9856 43.4447 33.4638 44.1644 33.4638H44.6326V32.403H44.2164C43.5835 32.403 43.1673 32.8051 43.0199 33.1558H42.9505V32.4201H41.884V36.9199Z" fill="#36425E"/>
<path d="M47.6205 36.9199H48.4616V35.996H47.8546C47.4211 35.996 47.2303 35.7564 47.2303 35.38V33.3098H48.4876V32.4201H47.2303V31.1797H46.1725V32.0865C46.1725 32.3004 46.0424 32.4287 45.843 32.4287H45.3314V33.3098H46.1031V35.4228C46.1031 36.3895 46.6754 36.9199 47.6205 36.9199Z" fill="#36425E"/>
<path d="M53.7171 36.9199H54.5582V35.996H53.9512C53.5177 35.996 53.327 35.7564 53.327 35.38V33.3098H54.5842V32.4201H53.327V31.1797H52.2691V32.0865C52.2691 32.3004 52.1391 32.4287 51.9396 32.4287H51.4281V33.3098H52.1998V35.4228C52.1998 36.3895 52.772 36.9199 53.7171 36.9199Z" fill="#36425E"/>
<path d="M57.6838 37.0311C59.1058 37.0311 60.1116 36.0045 60.1116 34.67C60.1116 33.3355 59.1145 32.3089 57.6838 32.3089C56.2445 32.3089 55.256 33.3355 55.256 34.67C55.256 36.0131 56.2531 37.0311 57.6838 37.0311ZM57.6838 36.0216C56.9381 36.0216 56.4005 35.4656 56.4005 34.67C56.4005 33.8915 56.9295 33.3184 57.6838 33.3184C58.4295 33.3184 58.9671 33.8915 58.9671 34.67C58.9671 35.457 58.4295 36.0216 57.6838 36.0216Z" fill="#36425E"/>
<path d="M63.4 38.8874H64.5272V36.3381H64.5879C64.7353 36.5862 65.1688 37.0311 65.9752 37.0311C67.2238 37.0311 68.0909 36.0558 68.0909 34.6529C68.0909 33.2499 67.2151 32.3089 65.9405 32.3089C65.1081 32.3089 64.6919 32.8051 64.5706 32.9933H64.5099V32.4201H63.4V38.8874ZM65.7238 36.0216C65.0214 36.0216 64.5012 35.5083 64.5012 34.67C64.5012 33.9086 64.9694 33.3184 65.7151 33.3184C66.4521 33.3184 66.9464 33.8488 66.9464 34.67C66.9464 35.4656 66.4521 36.0216 65.7238 36.0216Z" fill="#36425E"/>
<path d="M71.2319 37.0311C72.6539 37.0311 73.6597 36.0045 73.6597 34.67C73.6597 33.3355 72.6626 32.3089 71.2319 32.3089C69.7925 32.3089 68.8041 33.3355 68.8041 34.67C68.8041 36.0131 69.8012 37.0311 71.2319 37.0311ZM71.2319 36.0216C70.4862 36.0216 69.9486 35.4656 69.9486 34.67C69.9486 33.8915 70.4775 33.3184 71.2319 33.3184C71.9776 33.3184 72.5152 33.8915 72.5152 34.67C72.5152 35.457 71.9776 36.0216 71.2319 36.0216Z" fill="#36425E"/>
<path d="M74.6534 36.9199H75.7806V34.7898C75.7806 33.9856 76.2141 33.4638 76.9338 33.4638H77.402V32.403H76.9858C76.3528 32.403 75.9367 32.8051 75.7892 33.1558H75.7199V32.4201H74.6534V36.9199Z" fill="#36425E"/>
<path d="M80.3899 36.9199H81.231V35.996H80.624C80.1905 35.996 79.9997 35.7564 79.9997 35.38V33.3098H81.257V32.4201H79.9997V31.1797H78.9419V32.0865C78.9419 32.3004 78.8118 32.4287 78.6124 32.4287H78.1008V33.3098H78.8725V35.4228C78.8725 36.3895 79.4448 36.9199 80.3899 36.9199Z" fill="#36425E"/>
<path d="M86.1397 37.0311C87.3623 37.0311 88.0646 36.4151 88.0646 35.5597C88.0646 33.6092 85.3853 34.5075 85.3853 33.652C85.3853 33.3611 85.6802 33.1644 86.1397 33.1644C86.6339 33.1644 86.8941 33.3783 86.9461 33.7033H87.9432C87.8738 32.8051 87.1368 32.3089 86.1484 32.3089C85.0212 32.3089 84.3535 32.9249 84.3535 33.6862C84.3535 35.5682 86.9721 34.6614 86.9721 35.6196C86.9721 35.9361 86.6773 36.1585 86.157 36.1585C85.6455 36.1585 85.3333 35.9532 85.29 35.5682H84.2495C84.2928 36.4579 84.9085 37.0311 86.1397 37.0311Z" fill="#36425E"/>
<path d="M89.1075 36.9199H90.2347V34.3193C90.2347 33.7632 90.6509 33.3526 91.1885 33.3526C91.7087 33.3526 92.0815 33.7204 92.0815 34.2679V36.9199H93.2087V33.9771C93.2087 33.019 92.5844 32.3089 91.5613 32.3089C90.9197 32.3089 90.4775 32.634 90.2954 32.9676H90.226V30.5039H89.1075V36.9199Z" fill="#36425E"/>
<path d="M94.9294 31.8213C95.3369 31.8213 95.6231 31.5732 95.6231 31.1712C95.6231 30.7862 95.3369 30.5296 94.9294 30.5296C94.5219 30.5296 94.2357 30.7862 94.2357 31.1712C94.2357 31.5732 94.5219 31.8213 94.9294 31.8213ZM94.3658 36.9199H95.493V32.4201H94.3658V36.9199Z" fill="#36425E"/>
<path d="M96.6436 38.8874H97.7708V36.3381H97.8315C97.9789 36.5862 98.4124 37.0311 99.2188 37.0311C100.467 37.0311 101.334 36.0558 101.334 34.6529C101.334 33.2499 100.459 32.3089 99.1841 32.3089C98.3517 32.3089 97.9355 32.8051 97.8141 32.9933H97.7534V32.4201H96.6436V38.8874ZM98.9673 36.0216C98.265 36.0216 97.7448 35.5083 97.7448 34.67C97.7448 33.9086 98.213 33.3184 98.9587 33.3184C99.6957 33.3184 100.19 33.8488 100.19 34.67C100.19 35.4656 99.6957 36.0216 98.9673 36.0216Z" fill="#36425E"/>
<path d="M102.334 38.8874H103.461V36.3381H103.522C103.669 36.5862 104.103 37.0311 104.909 37.0311C106.158 37.0311 107.025 36.0558 107.025 34.6529C107.025 33.2499 106.149 32.3089 104.874 32.3089C104.042 32.3089 103.626 32.8051 103.504 32.9933H103.444V32.4201H102.334V38.8874ZM104.658 36.0216C103.955 36.0216 103.435 35.5083 103.435 34.67C103.435 33.9086 103.903 33.3184 104.649 33.3184C105.386 33.3184 105.88 33.8488 105.88 34.67C105.88 35.4656 105.386 36.0216 104.658 36.0216Z" fill="#36425E"/>
<path d="M108.588 31.8213C108.995 31.8213 109.281 31.5732 109.281 31.1712C109.281 30.7862 108.995 30.5296 108.588 30.5296C108.18 30.5296 107.894 30.7862 107.894 31.1712C107.894 31.5732 108.18 31.8213 108.588 31.8213ZM108.024 36.9199H109.151V32.4201H108.024V36.9199Z" fill="#36425E"/>
<path d="M110.302 36.9199H111.429V34.3449C111.429 33.7803 111.819 33.3526 112.365 33.3526C112.886 33.3526 113.241 33.7204 113.241 34.2679V36.9199H114.368V33.9771C114.368 33.019 113.744 32.3089 112.721 32.3089C112.071 32.3089 111.62 32.634 111.438 32.9676H111.377V32.4201H110.302V36.9199Z" fill="#36425E"/>
<path d="M117.599 38.9986C119.142 38.9986 119.923 38.1089 119.923 36.8856V32.4201H118.804V33.0019H118.735C118.596 32.7794 118.145 32.3089 117.339 32.3089C116.125 32.3089 115.232 33.2328 115.232 34.6529C115.232 36.0815 116.142 36.9883 117.373 36.9883C118.188 36.9883 118.613 36.5092 118.743 36.3039H118.813V36.8856C118.813 37.6556 118.414 38.0833 117.599 38.0833C116.983 38.0833 116.619 37.8266 116.532 37.4246H115.492C115.57 38.2629 116.281 38.9986 117.599 38.9986ZM117.599 35.9874C116.87 35.9874 116.376 35.4741 116.376 34.6529C116.376 33.8573 116.87 33.3184 117.59 33.3184C118.301 33.3184 118.821 33.8145 118.821 34.6529C118.821 35.4142 118.353 35.9874 117.599 35.9874Z" fill="#36425E"/>
</g>
<defs>
<clipPath id="clip0_472_3224">
<rect width="200" height="39.3846" fill="white"/>
</clipPath>
</defs>
</svg>
