<svg width="48" height="48" viewBox="0 0 48 48" fill="none" xmlns="http://www.w3.org/2000/svg">
<g clip-path="url(#clip0_1809_16810)">
<path d="M24 46.996C36.7025 46.996 47 36.6986 47 23.996C47 11.2935 36.7025 0.996002 24 0.996002C11.2975 0.996002 1 11.2935 1 23.996C1 36.6986 11.2975 46.996 24 46.996Z" fill="#57B89C"/>
<path d="M7.92811 30C7.92747 25.9828 8.979 22.0356 10.978 18.5511C12.977 15.0667 15.8538 12.1665 19.322 10.1394C22.7902 8.11231 26.7289 7.02892 30.7459 6.99709C34.7629 6.96526 38.7182 7.98611 42.2181 9.95801C40.1368 7.25848 37.4815 5.05532 34.4443 3.5079C31.4071 1.96048 28.0639 1.1075 24.6566 1.01066C21.2493 0.913818 17.863 1.57554 14.7428 2.94796C11.6226 4.32038 8.8465 6.36917 6.61526 8.94613C4.38401 11.5231 2.75345 14.5638 1.84153 17.8482C0.929604 21.1327 0.759126 24.5787 1.34242 27.9372C1.92572 31.2956 3.24821 34.4823 5.21422 37.2669C7.18023 40.0515 9.7406 42.3643 12.7101 44.038C9.60271 40.0189 7.9204 35.0803 7.92811 30Z" fill="white"/>
<path d="M3.79614 35L20.0001 35.002" stroke="#36425E" stroke-width="2" stroke-linecap="round" stroke-linejoin="round"/>
<path d="M5.02417 11H42.9922" stroke="#36425E" stroke-width="2" stroke-linecap="round" stroke-linejoin="round"/>
<path d="M22.0002 23H1.02222" stroke="#36425E" stroke-width="2" stroke-linecap="round" stroke-linejoin="round"/>
<path d="M22.7561 46.968C18.3105 46.7229 14.0316 45.1928 10.4386 42.5634C6.84565 39.9339 4.09312 36.3181 2.51508 32.1547C0.937027 27.9914 0.601296 23.4596 1.54863 19.1091C2.49596 14.7587 4.68562 10.7768 7.85189 7.64657C11.0182 4.51635 15.0249 2.37242 19.3859 1.47495C23.7469 0.577494 28.2746 0.965087 32.4196 2.5907C36.5645 4.21631 40.1486 7.01005 42.7368 10.6329C45.3249 14.2557 46.806 18.5519 47.0001 23" stroke="#36425E" stroke-width="2" stroke-linecap="round" stroke-linejoin="round"/>
<path d="M22.5382 1.052C10.5382 14.052 10.7562 30.968 22.7562 46.968" stroke="#36425E" stroke-width="2" stroke-linecap="round" stroke-linejoin="round"/>
<path d="M25.4602 1.052C30.1878 5.96292 33.2257 12.2538 34.1322 19.01" stroke="#36425E" stroke-width="2" stroke-linecap="round" stroke-linejoin="round"/>
<path d="M34.058 43.116C39.0606 43.116 43.116 39.0606 43.116 34.058C43.116 29.0554 39.0606 25 34.058 25C29.0554 25 25 29.0554 25 34.058C25 39.0606 29.0554 43.116 34.058 43.116Z" fill="#C20517"/>
<path d="M27.6539 40.464C26.0654 38.7451 25.2039 36.478 25.2501 34.1379C25.2962 31.7978 26.2463 29.5664 27.9013 27.9114C29.5563 26.2564 31.7877 25.3062 34.1278 25.2601C36.4679 25.214 38.735 26.0755 40.4539 27.664L27.6539 40.464Z" fill="white"/>
<path d="M34.058 43.116C39.0606 43.116 43.116 39.0606 43.116 34.058C43.116 29.0554 39.0606 25 34.058 25C29.0554 25 25 29.0554 25 34.058C25 39.0606 29.0554 43.116 34.058 43.116Z" stroke="#36425E" stroke-width="2" stroke-linecap="round" stroke-linejoin="round"/>
<path d="M46.9999 47L40.5039 40.504" stroke="#36425E" stroke-width="2" stroke-linecap="round" stroke-linejoin="round"/>
</g>
<defs>
<clipPath id="clip0_1809_16810">
<rect width="48" height="48" fill="white"/>
</clipPath>
</defs>
</svg>
