<svg width="24" height="24" viewBox="0 0 24 24" fill="none" xmlns="http://www.w3.org/2000/svg">
<path d="M23.1442 8.54113L16.0632 7.51213L12.9002 1.10013C12.8082 0.943988 12.6771 0.814554 12.5198 0.724629C12.3624 0.634704 12.1844 0.587402 12.0032 0.587402C11.822 0.587402 11.6439 0.634704 11.4866 0.724629C11.3292 0.814554 11.1981 0.943988 11.1062 1.10013L7.93716 7.51213L0.856162 8.54113C0.671503 8.56778 0.497982 8.64557 0.355218 8.76568C0.212454 8.8858 0.106141 9.04346 0.0482972 9.22084C-0.00954639 9.39822 -0.0166132 9.58825 0.0278958 9.76943C0.0724048 9.95062 0.166714 10.1157 0.300162 10.2461L5.42516 15.2401L4.21616 22.2931C4.18465 22.477 4.20522 22.6661 4.27554 22.8389C4.34586 23.0117 4.46313 23.1614 4.61409 23.2711C4.76505 23.3807 4.94368 23.446 5.12977 23.4594C5.31587 23.4729 5.50201 23.434 5.66716 23.3471L12.0002 20.0181L18.3332 23.3471C18.4983 23.434 18.6845 23.4729 18.8706 23.4594C19.0566 23.446 19.2353 23.3807 19.3862 23.2711C19.5372 23.1614 19.6545 23.0117 19.7248 22.8389C19.7951 22.6661 19.8157 22.477 19.7842 22.2931L18.5752 15.2401L23.7002 10.2461C23.8336 10.1159 23.9279 9.95091 23.9725 9.76987C24.0171 9.58883 24.0102 9.39892 23.9526 9.2216C23.895 9.04427 23.7889 8.88658 23.6464 8.76634C23.5039 8.6461 23.3307 8.56809 23.1462 8.54113H23.1442Z" fill="#FCC200"/>
</svg>
