<svg width="16" height="16" viewBox="0 0 16 16" fill="none" xmlns="http://www.w3.org/2000/svg">
<g clip-path="url(#clip0_1719_17434)">
<path d="M12.3 11L12.0441 11.3412L12.3407 11.6477L15.3407 14.7477L15.3407 14.7478L15.3464 14.7536C15.5512 14.9583 15.5512 15.2417 15.3464 15.4464C15.3033 15.4896 15.2394 15.5307 15.1643 15.5608C15.087 15.5917 15.0252 15.6 15 15.6C14.9748 15.6 14.913 15.5917 14.8357 15.5608C14.7606 15.5307 14.6967 15.4896 14.6536 15.4464L11.6536 12.4464L11.3336 12.1265L10.9834 12.413C9.98394 13.2307 8.59997 13.7 7.1 13.7C3.47614 13.7 0.5 10.7239 0.5 7.1C0.5 3.47614 3.47614 0.5 7.1 0.5C10.7147 0.5 13.6 3.46685 13.6 7.1C13.6 8.58809 13.1374 9.88352 12.3 11ZM1.5 7.1C1.5 10.189 4.03686 12.6 7.1 12.6C10.1631 12.6 12.7 10.189 12.7 7.1C12.7 4.02386 10.1761 1.5 7.1 1.5C4.02386 1.5 1.5 4.02386 1.5 7.1Z" fill="#969EB2" stroke="#969EB2"/>
</g>
<defs>
<clipPath id="clip0_1719_17434">
<rect width="16" height="16" fill="white"/>
</clipPath>
</defs>
</svg>
