<svg xmlns="http://www.w3.org/2000/svg" xmlns:xlink="http://www.w3.org/1999/xlink" width="186.673" height="31.843" viewBox="0 0 186.673 31.843">
  <defs>
    <clipPath id="clip-path">
      <rect id="Rectangle_3472" data-name="Rectangle 3472" width="186.673" height="31.843" fill="none"/>
    </clipPath>
  </defs>
  <g id="Group_5307" data-name="Group 5307" transform="translate(0 0)">
    <path id="Path_14845" data-name="Path 14845" d="M295.892,15.9l4.617,2-6.465,2.565Z" transform="translate(-162.859 -8.809)" fill="#32415a"/>
    <g id="Group_5308" data-name="Group 5308" transform="translate(0 0)">
      <g id="Group_5307-2" data-name="Group 5307" clip-path="url(#clip-path)">
        <path id="Path_14846" data-name="Path 14846" d="M396.754,10.866c0-5.639-4.572-9.977-10.478-9.977H379.3v20.02h6.974c6.407,0,10.478-4.7,10.478-10.043m-5.039,0a5.334,5.334,0,0,1-5.539,5.572h-1.968V5.327h1.968a5.288,5.288,0,0,1,5.539,5.539" transform="translate(-210.081 -0.492)" fill="#4bbea0"/>
        <path id="Path_14847" data-name="Path 14847" d="M259.418.955l-3.547,9.092L252,.955h-4.9l1.226,3.063-2.353,6.062-3.9-9.125h-4.966l8.544,19.991h.612l4.612-11.157,4.772,11.157h.645L264.352.955Z" transform="translate(-131.324 -0.529)" fill="#4bbea0"/>
        <path id="Path_14848" data-name="Path 14848" d="M320.224,7.261a2.112,2.112,0,0,1-1.835,2.3h-3.938v-4.5h3.8a2.117,2.117,0,0,1,1.969,2.2m4.8,0c0-3.771-2.8-6.373-7.107-6.373h-8.375V7.51L293.919.929l-1.741,4.318,9.877,4.268L288.2,15.1l-2.342,5.807,23.684-9.974v9.971h4.9V13.434l5.106,7.474H325.7l-5.406-7.441c2.97-.734,4.738-2.7,4.738-6.206" transform="translate(-158.328 -0.492)" fill="#4bbea0"/>
        <path id="Path_14849" data-name="Path 14849" d="M217.378,7.3c0-3.767-2.8-6.366-7.1-6.366h-8.366v20h4.9V13.471l5.1,7.466h6.132l-5.4-7.433c2.966-.733,4.733-2.7,4.733-6.2m-4.8,0a2.11,2.11,0,0,1-1.834,2.3h-3.933v-4.5h3.8a2.114,2.114,0,0,1,1.967,2.2" transform="translate(-111.832 -0.52)" fill="#4bbea0"/>
        <path id="Path_14850" data-name="Path 14850" d="M170.438,10.442a10.539,10.539,0,0,0-21.078,0,10.539,10.539,0,0,0,21.078,0m-4.862,0a5.682,5.682,0,1,1-11.355,0,5.682,5.682,0,1,1,11.355,0" transform="translate(-82.725 -0.001)" fill="#4bbea0"/>
        <path id="Path_14851" data-name="Path 14851" d="M116.5.98V20.959h4.9V13.833h7.36V9.57H121.4V5.309h7.992V.98Z" transform="translate(-64.526 -0.543)" fill="#4bbea0"/>
        <path id="Path_14852" data-name="Path 14852" d="M80.082.938v20H93.831v-4.2H84.983V.938Z" transform="translate(-44.355 -0.52)" fill="#32415a"/>
        <path id="Path_14853" data-name="Path 14853" d="M43.686.938v20H57.424v-4.2H48.585V.938Z" transform="translate(-24.196 -0.52)" fill="#32415a"/>
        <path id="Path_14854" data-name="Path 14854" d="M8.292.958,0,20.953H4.933l3.67-9.1,1.586,3.852L8.649,15.7l-1.5,3.706h4.558l.637,1.547h4.9L8.937.953Z" transform="translate(0 -0.528)" fill="#32415a"/>
        <path id="Path_14855" data-name="Path 14855" d="M175.2,54.335l-.184.947a.2.2,0,0,1-.215.183h-1.824a.071.071,0,0,0-.076.065L171.741,61.5a.2.2,0,0,1-.215.183H170.4c-.12,0-.168-.061-.144-.183l1.161-5.972c.008-.043-.008-.065-.051-.065h-1.772c-.12,0-.167-.061-.144-.183l.185-.947a.2.2,0,0,1,.214-.182h5.21c.119,0,.167.061.144.182" transform="translate(-93.848 -29.993)" fill="#32415a"/>
        <path id="Path_14856" data-name="Path 14856" d="M187.823,54.153h1.128c.12,0,.168.061.145.182L187.7,61.5a.2.2,0,0,1-.215.183h-1.128c-.12,0-.167-.061-.144-.183l.565-2.905c.009-.043-.008-.065-.05-.065h-2.31a.071.071,0,0,0-.076.065L183.78,61.5a.2.2,0,0,1-.215.183h-1.128c-.12,0-.167-.061-.144-.183l1.393-7.167a.2.2,0,0,1,.214-.182h1.128q.179,0,.145.182l-.551,2.831c-.008.043.008.064.05.064h2.31a.07.07,0,0,0,.076-.064l.551-2.831a.2.2,0,0,1,.214-.182" transform="translate(-100.961 -29.993)" fill="#32415a"/>
        <path id="Path_14857" data-name="Path 14857" d="M204.2,55.455h-3.4a.07.07,0,0,0-.075.065l-.32,1.647c-.008.043.008.064.05.064h2.2c.119,0,.167.061.144.183l-.182.936a.2.2,0,0,1-.215.183h-2.2a.071.071,0,0,0-.076.065l-.335,1.721c-.008.043.008.065.051.065h3.4c.119,0,.167.062.143.183l-.182.936a.2.2,0,0,1-.215.183h-4.767c-.12,0-.167-.061-.144-.183l1.393-7.167a.2.2,0,0,1,.215-.182h4.767c.12,0,.167.061.144.182l-.182.937a.2.2,0,0,1-.215.182" transform="translate(-109.707 -29.993)" fill="#32415a"/>
        <path id="Path_14858" data-name="Path 14858" d="M224.063,54.419a1.534,1.534,0,0,1,.657.824,2.317,2.317,0,0,1,.053,1.221,2.784,2.784,0,0,1-.533,1.195,2.726,2.726,0,0,1-1,.8,3,3,0,0,1-1.305.285h-1.487a.071.071,0,0,0-.076.065l-.521,2.68a.2.2,0,0,1-.214.183h-1.128c-.12,0-.167-.061-.144-.183l1.4-7.177a.2.2,0,0,1,.215-.183H222.9a2.182,2.182,0,0,1,1.168.29m-1.214,2.825a1.236,1.236,0,0,0,.441-.748.813.813,0,0,0-.871-1.055h-1.329a.071.071,0,0,0-.076.065l-.381,1.959c-.008.043.009.065.051.065h1.329a1.283,1.283,0,0,0,.836-.285" transform="translate(-120.941 -29.98)" fill="#32415a"/>
        <path id="Path_14859" data-name="Path 14859" d="M235.055,61.353a1.852,1.852,0,0,1-.788-.963,2.628,2.628,0,0,1-.07-1.425l.448-2.3a3.344,3.344,0,0,1,.621-1.41,3.214,3.214,0,0,1,1.161-.952,3.407,3.407,0,0,1,1.516-.339,2.66,2.66,0,0,1,1.395.339,1.83,1.83,0,0,1,.791.952,2.585,2.585,0,0,1,.074,1.41l-.448,2.3a3.434,3.434,0,0,1-.626,1.431,3.189,3.189,0,0,1-1.163.963,3.426,3.426,0,0,1-1.526.339,2.6,2.6,0,0,1-1.384-.344m2.649-1.334a1.715,1.715,0,0,0,.553-1l.46-2.367a1.244,1.244,0,0,0-.158-1.006,1,1,0,0,0-.869-.381,1.465,1.465,0,0,0-1.008.381,1.759,1.759,0,0,0-.549,1.006l-.46,2.367a1.225,1.225,0,0,0,.159,1,1,1,0,0,0,.86.377,1.491,1.491,0,0,0,1.012-.377" transform="translate(-129.677 -29.886)" fill="#32415a"/>
        <path id="Path_14860" data-name="Path 14860" d="M251.066,61.524l-.464-7.167a.121.121,0,0,1,0-.054.177.177,0,0,1,.2-.15H252a.141.141,0,0,1,.158.161l.157,4.294c0,.028.013.043.034.043s.038-.015.05-.043l1.784-4.294a.224.224,0,0,1,.221-.161H255.6c.112,0,.169.054.169.161l.2,4.294c0,.028.011.043.029.043s.033-.015.045-.043l1.783-4.294a.225.225,0,0,1,.222-.161h1.15c.063,0,.1.019.12.058a.179.179,0,0,1-.012.146l-3.091,7.167a.23.23,0,0,1-.232.161h-1.16c-.112,0-.169-.054-.169-.161l-.166-4.573c0-.029-.012-.043-.033-.043s-.038.015-.05.043l-1.87,4.573a.224.224,0,0,1-.221.161h-1.076q-.169,0-.169-.161" transform="translate(-138.797 -29.993)" fill="#32415a"/>
        <path id="Path_14861" data-name="Path 14861" d="M275.8,55.455h-3.4a.07.07,0,0,0-.075.065l-.32,1.647c-.008.043.008.064.05.064h2.2c.119,0,.167.061.144.183l-.182.936a.2.2,0,0,1-.215.183h-2.2a.071.071,0,0,0-.076.065l-.335,1.721c-.008.043.008.065.051.065h3.4c.119,0,.167.062.143.183l-.182.936a.2.2,0,0,1-.215.183h-4.767c-.12,0-.167-.061-.144-.183l1.393-7.167a.2.2,0,0,1,.215-.182h4.767c.12,0,.167.061.144.182l-.182.937a.2.2,0,0,1-.215.182" transform="translate(-149.363 -29.993)" fill="#32415a"/>
        <path id="Path_14862" data-name="Path 14862" d="M288.3,61.532l-.728-2.927a.059.059,0,0,0-.063-.054h-.96a.071.071,0,0,0-.075.065l-.559,2.873a.2.2,0,0,1-.215.183h-1.128c-.12,0-.167-.06-.144-.183l1.4-7.177a.2.2,0,0,1,.215-.183h2.964a2.1,2.1,0,0,1,1.131.285,1.5,1.5,0,0,1,.635.8,2.258,2.258,0,0,1,.05,1.184,2.641,2.641,0,0,1-.6,1.259,2.482,2.482,0,0,1-1.136.742.088.088,0,0,0-.049.037.039.039,0,0,0,0,.049l.815,2.97a.144.144,0,0,1,.013.1.133.133,0,0,1-.059.086.219.219,0,0,1-.122.032h-1.192a.181.181,0,0,1-.184-.14m-1.222-6.026-.352,1.808c-.008.043.008.064.05.064h1.371a1.2,1.2,0,0,0,.775-.264,1.135,1.135,0,0,0,.414-.694.765.765,0,0,0-.812-.98h-1.371a.07.07,0,0,0-.075.065" transform="translate(-157.533 -29.979)" fill="#32415a"/>
        <path id="Path_14863" data-name="Path 14863" d="M307.056,61.353a1.852,1.852,0,0,1-.788-.963,2.627,2.627,0,0,1-.07-1.425l.448-2.3a3.344,3.344,0,0,1,.621-1.41,3.214,3.214,0,0,1,1.161-.952,3.407,3.407,0,0,1,1.516-.339,2.66,2.66,0,0,1,1.395.339,1.83,1.83,0,0,1,.791.952,2.585,2.585,0,0,1,.074,1.41l-.448,2.3a3.434,3.434,0,0,1-.626,1.431,3.189,3.189,0,0,1-1.163.963,3.426,3.426,0,0,1-1.526.339,2.6,2.6,0,0,1-1.384-.344m2.649-1.334a1.715,1.715,0,0,0,.553-1l.46-2.367a1.244,1.244,0,0,0-.158-1.006,1,1,0,0,0-.869-.381,1.465,1.465,0,0,0-1.008.381,1.759,1.759,0,0,0-.549,1.006l-.46,2.367a1.225,1.225,0,0,0,.159,1,1,1,0,0,0,.86.377,1.491,1.491,0,0,0,1.012-.377" transform="translate(-169.555 -29.886)" fill="#32415a"/>
        <path id="Path_14864" data-name="Path 14864" d="M327.276,55.455h-3.385a.07.07,0,0,0-.075.065l-.32,1.647c-.008.043.008.064.051.064h2.2q.179,0,.144.183l-.182.936a.2.2,0,0,1-.215.183h-2.2a.071.071,0,0,0-.076.065l-.564,2.905a.2.2,0,0,1-.215.183h-1.128c-.12,0-.167-.061-.144-.183l1.393-7.167a.2.2,0,0,1,.214-.182h4.756c.12,0,.167.061.144.182l-.182.937a.2.2,0,0,1-.215.182" transform="translate(-177.878 -29.993)" fill="#32415a"/>
        <path id="Path_14865" data-name="Path 14865" d="M341,61.5l1.393-7.167a.2.2,0,0,1,.215-.183h1.128a.186.186,0,0,1,.188.119l1.04,2.518a.045.045,0,0,0,.041.032.049.049,0,0,0,.043-.032l2.04-2.518a.292.292,0,0,1,.234-.119h1.128c.12,0,.168.061.144.183L347.2,61.5a.2.2,0,0,1-.215.183h-1.128c-.12,0-.167-.061-.144-.183l.906-4.659c.005-.029,0-.047-.016-.054s-.035,0-.054.032L345.137,58.6a.291.291,0,0,1-.233.118h-.538a.187.187,0,0,1-.188-.118l-.709-1.776c-.008-.029-.023-.039-.041-.032a.064.064,0,0,0-.037.054l-.906,4.659a.2.2,0,0,1-.215.183h-1.129c-.119,0-.167-.061-.144-.183" transform="translate(-188.862 -29.993)" fill="#32415a"/>
        <path id="Path_14866" data-name="Path 14866" d="M362.835,61.534l-.1-1a.047.047,0,0,0-.053-.054H360.1a.073.073,0,0,0-.074.054l-.49,1a.252.252,0,0,1-.23.15h-1.223a.128.128,0,0,1-.126-.059.15.15,0,0,1,.018-.145l3.641-7.177a.253.253,0,0,1,.23-.151h1.55a.158.158,0,0,1,.171.151l.851,7.177a.148.148,0,0,1,0,.065.161.161,0,0,1-.062.1.2.2,0,0,1-.123.037h-1.223a.157.157,0,0,1-.171-.15m-2.15-2.228h1.867c.042,0,.064-.025.067-.075l-.311-3.282c0-.029-.012-.043-.029-.043s-.037.014-.056.043l-1.577,3.282c-.017.05,0,.075.038.075" transform="translate(-198.251 -29.993)" fill="#32415a"/>
        <path id="Path_14867" data-name="Path 14867" d="M375.533,61.5l1.393-7.167a.2.2,0,0,1,.215-.183h1.086a.186.186,0,0,1,.188.119l1.767,4.477c.008.029.022.039.042.032a.063.063,0,0,0,.037-.053l.853-4.391a.2.2,0,0,1,.215-.183h1.107c.119,0,.168.061.144.183L381.185,61.5a.2.2,0,0,1-.215.183h-1.076a.2.2,0,0,1-.186-.129l-1.768-4.52c-.009-.029-.022-.039-.041-.032a.064.064,0,0,0-.037.053l-.853,4.444a.2.2,0,0,1-.215.183h-1.118c-.12,0-.167-.061-.144-.183" transform="translate(-207.99 -29.993)" fill="#32415a"/>
        <path id="Path_14868" data-name="Path 14868" d="M395.257,61.492l.517-2.658,0-.086-1.279-4.38a.178.178,0,0,1-.013-.1.132.132,0,0,1,.059-.086.215.215,0,0,1,.122-.032h1.223a.171.171,0,0,1,.184.14l.743,2.8a.045.045,0,0,0,.041.032.05.05,0,0,0,.044-.032l1.831-2.8a.29.29,0,0,1,.238-.14H400.2c.106,0,.15.043.133.129a.18.18,0,0,1-.038.086l-3,4.38-.037.086-.517,2.658a.2.2,0,0,1-.215.183H395.4c-.119,0-.167-.061-.143-.183" transform="translate(-218.484 -29.993)" fill="#32415a"/>
        <path id="Path_14869" data-name="Path 14869" d="M409.678,65.94a2.189,2.189,0,1,0-2.189-2.189,2.189,2.189,0,0,0,2.189,2.189" transform="translate(-225.692 -34.097)" fill="#4bbea0"/>
      </g>
    </g>
  </g>
</svg>
